<svg width="671" height="680" viewBox="0 0 671 680" fill="none" xmlns="http://www.w3.org/2000/svg">
<g clip-path="url(#clip0_18_978)">
<path d="M563.588 0H111.977C50.134 0 0 50.4631 0 112.712V567.287C0 629.537 50.134 680 111.977 680H563.588C625.431 680 675.565 629.537 675.565 567.287V112.712C675.565 50.4631 625.431 0 563.588 0Z" fill="#5855FF"/>
<path fill-rule="evenodd" clip-rule="evenodd" d="M539.996 404.985L432.326 341.135C402.691 323.557 384.505 291.545 384.505 256.913V130.174C384.505 105.175 364.382 84.9199 339.547 84.9199H335.643C310.808 84.9199 290.685 105.175 290.685 130.174V256.36C290.685 290.963 272.499 323.004 242.864 340.582L134.211 405.014C111.891 418.256 104.461 447.212 117.616 469.679C130.771 492.146 159.539 499.625 181.859 486.384L287.794 423.552C318.209 405.509 355.969 405.509 386.385 423.552L492.319 486.384C514.64 499.625 543.407 492.146 556.562 469.679C569.718 447.212 562.287 418.256 539.967 405.014L539.996 404.985ZM434.16 225.394L492.851 191.287C515.253 178.268 543.895 185.988 556.825 208.53C569.755 231.073 562.077 259.901 539.674 272.92L480.983 307.027C458.581 320.046 429.939 312.326 417.009 289.784C404.079 267.241 411.758 238.413 434.16 225.394ZM290.656 547.934V479.719C290.656 453.681 311.62 432.574 337.48 432.574C363.34 432.574 384.303 453.681 384.303 479.719V547.934C384.303 573.972 363.34 595.08 337.48 595.08C311.62 595.08 290.656 573.972 290.656 547.934ZM194.032 307.344L135.191 273.149C113.079 260.299 105.503 231.839 118.269 209.582L118.862 208.549C131.628 186.292 159.903 178.666 182.015 191.516L240.856 225.711C262.968 238.561 270.544 267.021 257.777 289.278L257.185 290.312C244.418 312.569 216.144 320.194 194.032 307.344Z" fill="#F5F5FF"/>
</g>
<defs>
<clipPath id="clip0_18_978">
<rect width="671" height="680" fill="white"/>
</clipPath>
</defs>
</svg>
