<?xml version="1.0" encoding="UTF-8"?>
<svg width="128px" height="97px" viewBox="0 0 128 97" version="1.1" xmlns="http://www.w3.org/2000/svg" xmlns:xlink="http://www.w3.org/1999/xlink">
    <title>discord-mark-black</title>
    <g id="Page-1" stroke="none" stroke-width="1" fill="none" fill-rule="evenodd">
        <g id="discord-mark-black" transform="translate(0.000096, 0.000000)" fill="#FFFFFF" fill-rule="nonzero">
            <path d="M107.699904,8.07 C99.3466563,4.24567946 90.528236,1.53257798 81.469904,0 C80.2303594,2.21588239 79.1087952,4.49572882 78.109904,6.83 C68.461038,5.37601977 58.64877,5.37601977 48.999904,6.83 C48.00049,4.49596912 46.8789391,2.21614992 45.639904,0 C36.5757691,1.54552013 27.7515441,4.26506221 19.389904,8.09 C2.78990401,32.65 -1.71009599,56.6 0.539904009,80.21 L0.539904009,80.21 C10.2612806,87.3925825 21.1422734,92.8550641 32.709904,96.36 C35.3145891,92.8567924 37.6194114,89.1403082 39.599904,85.25 C35.8382413,83.8450635 32.2075605,82.1117062 28.749904,80.07 C29.659904,79.41 30.549904,78.73 31.409904,78.07 C51.7798613,87.6495021 75.3599467,87.6495021 95.729904,78.07 C96.599904,78.78 97.489904,79.46 98.389904,80.07 C94.9255644,82.115014 91.2882456,83.8516915 87.519904,85.26 C89.4979685,89.1485075 91.8029295,92.8618699 94.409904,96.36 C105.987409,92.8691277 116.87675,87.4092341 126.599904,80.22 L126.599904,80.22 C129.239904,52.84 122.089904,29.11 107.699904,8.07 Z M42.449904,65.69 C36.179904,65.69 30.999904,60 30.999904,53 C30.999904,46 35.999904,40.26 42.429904,40.26 C48.859904,40.26 53.999904,46 53.889904,53 C53.779904,60 48.839904,65.69 42.449904,65.69 Z M84.689904,65.69 C78.409904,65.69 73.249904,60 73.249904,53 C73.249904,46 78.249904,40.26 84.689904,40.26 C91.129904,40.26 96.229904,46 96.119904,53 C96.009904,60 91.079904,65.69 84.689904,65.69 Z" id="Shape"></path>
        </g>
    </g>
</svg>