<svg xmlns="http://www.w3.org/2000/svg" width="190" height="62" fill="none"><path fill="#231F23" d="M70.535.43h10.256v4.567h-4.698v1.932h4.619v4.332h-4.62v6.576h-5.557V.431zm19.078 17.852c-1.096 0-2.088-.14-2.975-.418-.887-.278-1.644-.696-2.27-1.253-.626-.556-1.11-1.26-1.449-2.114-.34-.852-.509-1.853-.509-3.001V.43h5.56v10.83c0 .61.126 1.075.377 1.397.252.322.675.483 1.266.483s1.014-.16 1.265-.483c.252-.322.38-.787.38-1.397V.431h5.584v11.065c0 1.148-.169 2.149-.508 3.001-.34.853-.827 1.558-1.462 2.114-.634.557-1.395.975-2.283 1.253-.888.278-1.88.418-2.976.418zm11.535-13.284h-3.21V.43h12.161v4.566h-3.21v12.84h-5.741V4.997zm17.251 13.284c-1.095 0-2.088-.14-2.975-.418-.888-.278-1.645-.696-2.27-1.253-.626-.556-1.11-1.26-1.45-2.114-.338-.852-.508-1.853-.508-3.001V.43h5.559v10.83c0 .61.126 1.075.379 1.397.252.322.673.483 1.265.483.591 0 1.013-.16 1.266-.483.251-.322.379-.787.379-1.397V.431h5.585v11.065c0 1.148-.169 2.149-.509 3.001-.34.853-.826 1.558-1.462 2.114-.635.557-1.396.975-2.283 1.253-.889.278-1.88.418-2.976.418z"/><path fill="#231F23" fill-rule="evenodd" d="M133.639.43h-6.002v17.408h5.559v-4.41l2.609 4.41h6.525l-3.262-5.742a5.638 5.638 0 001.174-1.148c.295-.4.565-.905.808-1.514.244-.608.365-1.348.365-2.219 0-1.096-.195-2.065-.586-2.909a5.983 5.983 0 00-1.631-2.127c-.696-.574-1.517-1.01-2.467-1.305-.947-.296-1.979-.443-3.092-.443zm-.156 8.56h-.286V5.128h.286c.661 0 1.223.149 1.684.444.46.296.69.792.69 1.488s-.23 1.193-.69 1.487c-.461.297-1.024.445-1.684.445z" clip-rule="evenodd"/><path fill="#231F23" d="M143.113.43h10.256v4.567h-4.697v1.932h4.618v4.332h-4.618v2.01h4.88v4.566h-10.439V.431z"/><path fill="#BBBDBF" fill-rule="evenodd" d="M159.567 5.586a8.894 8.894 0 00-.718 3.548c0 1.253.24 2.437.718 3.55a9.203 9.203 0 001.957 2.91 9.2 9.2 0 002.91 1.958 8.906 8.906 0 003.55.717c1.252 0 2.434-.24 3.549-.717a9.2 9.2 0 002.91-1.958 9.248 9.248 0 001.957-2.91 8.884 8.884 0 00.719-3.55c0-1.252-.24-2.435-.719-3.548a9.258 9.258 0 00-1.957-2.911 9.2 9.2 0 00-2.91-1.958A8.926 8.926 0 00167.984 0a8.89 8.89 0 00-3.55.717 9.25 9.25 0 00-2.91 1.958 9.21 9.21 0 00-1.957 2.91zm5.049 4.97a3.553 3.553 0 01-.286-1.422c0-.504.095-.978.286-1.423a3.685 3.685 0 011.945-1.943c.443-.191.919-.288 1.423-.288s.978.097 1.422.288a3.677 3.677 0 011.945 1.943c.19.445.287.92.287 1.423 0 .505-.097.98-.287 1.422a3.688 3.688 0 01-1.945 1.946c-.444.19-.918.286-1.422.286-.504 0-.98-.095-1.423-.287a3.68 3.68 0 01-1.945-1.945z" clip-rule="evenodd"/><path fill="#BBBDBF" d="M178.813.418h10.258v4.566h-4.698v1.931h4.619v4.332h-4.619v6.577h-5.56V.418z"/><path fill="#BBBDBF" fill-rule="evenodd" d="M83.454 31.875c.417-.843.626-1.867.626-3.067 0-1.201-.209-2.222-.626-3.067a5.48 5.48 0 00-1.71-2.049c-.723-.52-1.566-.905-2.531-1.148a12.748 12.748 0 00-3.12-.365h-5.557v17.407h5.558v-4.15c1.114 0 2.154-.12 3.119-.364.966-.244 1.81-.627 2.531-1.149a5.464 5.464 0 001.71-2.049zm-7.124-1.136h-.236v-3.862h.236c.729 0 1.256.17 1.578.509.323.339.483.813.483 1.422 0 .61-.161 1.083-.483 1.422-.322.34-.849.51-1.579.51zm15.318-8.559h-6.004v17.406h5.559v-4.411l2.61 4.41h6.525l-3.263-5.74a5.628 5.628 0 001.175-1.15c.295-.4.565-.903.809-1.513.244-.608.365-1.347.365-2.218 0-1.096-.195-2.066-.587-2.91a5.956 5.956 0 00-1.63-2.127c-.696-.574-1.518-1.009-2.467-1.305-.948-.296-1.978-.443-3.092-.443zm-.157 8.56h-.288v-3.863h.288c.66 0 1.221.148 1.683.443.46.296.69.793.69 1.488s-.23 1.192-.69 1.487c-.462.296-1.023.444-1.683.444z" clip-rule="evenodd"/><path fill="#BBBDBF" d="M101.12 22.18h5.899v17.406h-5.899V22.179zm12.632 0l2.95 7.567 2.974-7.568h6.08l-6.784 17.407h-4.516l-6.785-17.407h6.081z"/><path fill="#BBBDBF" fill-rule="evenodd" d="M132.622 22.18h-4.178l-6.603 17.406h5.481l.574-1.565h5.272l.574 1.565h5.481l-6.601-17.407zm-2.091 8.95l1.176 3.055h-2.349l1.173-3.055z" clip-rule="evenodd"/><path fill="#BBBDBF" d="M138.44 30.895c0-1.392.244-2.648.732-3.771a8.774 8.774 0 011.983-2.884 8.67 8.67 0 012.923-1.84 9.876 9.876 0 013.549-.639c.992 0 1.875.096 2.65.287a12.54 12.54 0 011.996.653 9.39 9.39 0 011.67.913l-2.739 4.829a9.505 9.505 0 00-.914-.6 8.678 8.678 0 00-1.057-.405 4.576 4.576 0 00-1.397-.197 3.787 3.787 0 00-2.675 1.071 3.577 3.577 0 00-1.083 2.583c0 .504.1.98.3 1.423.2.444.475.83.822 1.161.349.33.756.592 1.227.784.469.19.982.286 1.539.286a4.87 4.87 0 001.489-.209 5.398 5.398 0 001.095-.47c.348-.19.654-.417.913-.678l2.741 4.828a7.859 7.859 0 01-1.67 1.018 14.42 14.42 0 01-2.01.68c-.783.208-1.68.312-2.689.312-1.357 0-2.609-.221-3.757-.665-1.149-.444-2.141-1.066-2.976-1.866s-1.487-1.762-1.956-2.884c-.47-1.122-.706-2.362-.706-3.72zm21.167 1.201l-5.403-9.916h6.185l2.01 3.68 1.984-3.68h6.185l-5.402 9.916v7.49h-5.558v-7.49h-.001zM70.535 43.928h10.256v4.567h-4.698v1.93h4.619v4.333h-4.62v6.577h-5.557V43.928z"/><path fill="#BBBDBF" fill-rule="evenodd" d="M82.814 49.095a8.903 8.903 0 00-.717 3.55c0 1.252.238 2.436.717 3.548a9.223 9.223 0 001.958 2.91 9.206 9.206 0 002.91 1.958 8.899 8.899 0 003.549.718 8.91 8.91 0 003.55-.718 9.231 9.231 0 002.91-1.959 9.202 9.202 0 001.956-2.909 8.881 8.881 0 00.719-3.548 8.89 8.89 0 00-.719-3.55 9.203 9.203 0 00-1.957-2.91 9.187 9.187 0 00-2.91-1.957 8.886 8.886 0 00-3.55-.718 8.9 8.9 0 00-3.548.718 9.217 9.217 0 00-2.91 1.956 9.239 9.239 0 00-1.958 2.911zm5.05 4.971a3.55 3.55 0 01-.287-1.422c0-.504.096-.977.287-1.423a3.688 3.688 0 011.944-1.944c.443-.19.918-.287 1.422-.287.504 0 .978.096 1.424.287.442.193.829.453 1.16.784.33.33.592.718.783 1.16.191.445.287.919.287 1.424 0 .504-.096.979-.287 1.421a3.674 3.674 0 01-1.943 1.945c-.446.19-.92.287-1.424.287-.504 0-.98-.096-1.422-.287a3.677 3.677 0 01-1.945-1.944zm20.2-10.138h-6.003v17.408h5.559v-4.412l2.609 4.412h6.525l-3.262-5.742a5.663 5.663 0 001.174-1.148c.295-.401.565-.906.809-1.514.243-.609.366-1.349.366-2.218 0-1.096-.196-2.066-.587-2.911a6.001 6.001 0 00-1.632-2.127c-.695-.574-1.517-1.008-2.465-1.305-.949-.295-1.98-.444-3.093-.444zm-.157 8.56h-.287v-3.864h.287c.661 0 1.222.148 1.685.444.459.297.69.792.69 1.488s-.231 1.192-.69 1.488c-.463.296-1.024.444-1.685.444z" clip-rule="evenodd"/><path fill="#BBBDBF" d="M124.662 61.779c-1.096 0-2.088-.139-2.975-.417-.887-.28-1.644-.697-2.271-1.254-.624-.556-1.108-1.261-1.448-2.114-.34-.852-.509-1.854-.509-3.002V43.928h5.559v10.83c0 .609.126 1.074.378 1.395.252.323.674.484 1.266.484.59 0 1.013-.16 1.265-.484.252-.32.379-.787.379-1.395v-10.83h5.586v11.065c0 1.148-.17 2.15-.509 3.002-.34.853-.827 1.557-1.462 2.114-.635.556-1.395.974-2.283 1.253-.888.278-1.881.417-2.976.417zm9.238-17.851h4.592l4.543 6.682 4.514-6.682h4.593v17.407h-5.558v-6.264l-3.549 5.22-3.576-5.22v6.264h-5.558V43.928h-.001z"/><path stroke="#01B8FC" stroke-width="4" d="M51.613 30.849L23.26 5.322V24.46L2 5.321v51.055l21.26-19.139v19.14l28.353-25.528z" clip-rule="evenodd"/><path stroke="#01B8FC" stroke-width="4" d="M57.054.479v60.768"/></svg>