<?xml version="1.0" encoding="UTF-8" standalone="no"?>
<!-- Created with Inkscape (http://www.inkscape.org/) -->
<svg
   xmlns:svg="http://www.w3.org/2000/svg"
   xmlns="http://www.w3.org/2000/svg"
   version="1.0"
   width="921.25983"
   height="177.16534"
   id="svg8300">
  <defs
     id="defs8302" />
  <path
     d="M 77.82449,26.11214 C 82.305356,26.679778 86.218584,31.281116 86.218584,34.546982 L 86.218584,56.7171 C 86.218584,60.514816 90.958111,61.829029 92.931025,62.661706 C 86.890395,65.794344 84.291379,69.644147 84.291379,73.924816 L 84.291379,103.19289 C 84.291379,108.36824 86.477245,110.19304 89.419607,110.71497 C 92.983111,111.351 94.485828,104.8795 95.640592,105.8943 C 96.782245,106.89954 92.873977,111.12812 89.748072,114.58781 C 86.391143,118.29446 84.157797,123.83726 84.078072,123.72174 C 84.078072,123.72174 78.696143,120.2167 76.063112,116.93454 C 73.675631,114.0021 71.684647,109.98009 71.684647,105.06304 L 71.684647,79.540958 C 71.684647,69.850722 82.650119,64.73206 85.742009,63.608478 C 83.263466,63.383832 73.032876,61.937808 73.032876,53.91647 L 73.032876,36.628675 C 73.032876,34.288321 72.453899,30.97214 70.02071,30.913321 C 65.431065,30.793203 61.265553,37.316785 61.265553,44.437415 L 61.265553,94.120603 C 61.265553,94.281469 60.278388,99.595012 49.616931,109.71009 C 44.114884,114.93257 40.952837,124.33651 40.012798,125.27194 C 39.284294,123.70544 35.634333,112.04052 26.884137,113.08474 C 18.13394,114.12257 18.776341,124.00308 18.031538,124.12993 C 17.789176,124.17068 17.719019,123.67958 17.71583,122.85647 L 17.71583,122.75726 L 17.71583,122.65167 C 17.725751,121.35694 17.854019,119.35639 17.72079,117.25025 L 17.71583,117.16237 L 17.71583,116.5182 C 17.989019,111.6047 23.75327,104.3884 30.023152,102.8708 C 39.908624,100.47836 46.175671,109.91667 47.017916,109.91667 C 47.017916,109.91667 48.56138,108.76332 48.56138,107.66879 L 48.56138,34.437848 C 48.56138,30.690801 46.203309,28.234581 43.242876,28.189227 C 36.78768,28.085053 34.481341,31.389896 35.410042,36.710171 C 36.529018,43.03214 46.674923,54.335998 45.21579,63.917454 C 44.448309,68.933359 40.230711,73.87769 33.764176,73.711863 C 25.748861,73.505288 21.427444,60.532887 22.725357,59.958517 C 23.660436,59.545368 24.073585,66.522848 28.617877,66.511509 C 30.672286,66.505131 31.898625,64.537178 32.61579,62.564265 C 33.764176,59.402218 25.386381,52.499856 25.215593,44.91399 C 24.990948,35.108242 30.114215,28.595644 38.755632,26.743203 C 46.57075,25.06155 55.95201,29.755368 60.416577,38.310683 C 60.416577,38.310683 66.652443,24.694109 77.82449,26.11214 L 77.82449,26.11214 z M 173.13449,54.851549 C 176.6459,61.874383 180.40287,65.438241 182.91756,67.0221 C 179.8239,68.324974 178.6709,70.51084 178.6709,72.833477 L 178.65957,107.42643 C 178.65957,109.43017 180.17362,111.26489 181.16079,111.0647 C 185.92972,110.06123 186.18165,104.66159 187.56425,106.1643 C 188.10425,106.75639 185.55555,110.43363 184.2998,111.4371 C 181.63736,113.57265 175.38874,119.62462 173.25957,123.73981 C 170.08653,118.60981 166.6676,115.17812 166.62224,113.37777 C 166.62224,113.19387 166.74236,111.50726 166.62224,106.60686 C 166.62224,106.60686 149.98854,115.2823 148.54748,123.73981 C 147.03307,117.58863 143.65346,112.81474 138.50717,110.56048 C 140.01484,109.18285 143.0224,107.04907 143.0224,103.91501 L 143.0224,73.109855 C 143.0224,70.027887 141.66248,68.473084 139.21795,67.911824 C 136.86626,67.371824 134.84622,71.800603 133.61811,70.538478 C 133.01646,69.925485 139.35614,64.509541 143.40614,59.872415 C 145.91409,56.992061 147.54402,54.851549 147.54402,54.851549 C 152.16307,56.344698 155.31839,60.675682 155.31839,64.135367 L 155.31839,103.27899 C 155.31839,105.76249 155.81764,109.81887 159.37476,109.34407 C 160.46433,109.19915 162.12331,108.1273 166.63358,105.1658 L 166.62224,75.112178 C 166.62224,70.154737 166.05921,69.528635 162.47941,66.940958 C 166.64492,64.784147 169.74319,61.754265 173.13449,54.851549 z M 294.29185,26.623085 C 307.2072,26.927101 318.90153,34.040998 319.82527,47.376234 C 320.33586,54.749147 316.47968,60.698714 312.62492,64.439383 C 307.82196,69.115485 304.39027,70.268478 297.82098,71.97954 C 308.28082,72.501824 321.06472,82.359658 319.50318,96.732375 C 317.23759,117.62265 294.70004,131.14639 280.5385,123.08572 C 272.82082,118.68954 273.35445,107.25564 264.8172,106.57745 C 256.61834,105.94143 251.77464,112.28607 253.14732,118.71399 C 254.45515,124.85206 258.55689,128.71993 266.78515,125.68509 C 266.78515,125.68509 267.83574,124.96119 268.14011,125.58092 C 268.45547,126.21198 267.31382,126.8317 267.31382,126.8317 C 258.66602,129.95938 254.18019,126.29808 252.2009,120.89985 C 248.66504,111.21458 258.35031,101.20686 271.16362,99.542926 C 284.27456,97.838595 287.81362,114.22001 291.22263,118.97761 C 293.04106,121.54226 295.42854,122.28741 297.10381,122.15064 C 302.102,121.73749 303.77728,117.45682 303.77728,114.74867 L 303.77728,82.566233 C 303.77728,77.722532 300.01181,73.028714 295.3357,73.0808 C 286.68968,73.184974 284.76248,81.056784 283.66618,80.063241 C 282.62196,79.122847 287.10283,72.042966 295.12452,71.939147 C 288.12897,71.984501 282.42035,65.202257 282.42035,60.573281 C 282.42035,55.259738 285.63909,53.49836 289.02543,52.981037 C 293.23133,52.333675 297.02905,55.271076 297.10381,59.545368 C 297.20622,65.478635 291.26799,66.000919 289.29543,66.000919 C 289.29543,69.644147 293.97614,71.107887 296.62228,70.579226 C 299.16283,70.079974 303.77728,68.123359 303.77728,62.248556 L 303.77728,40.060722 C 303.77728,34.885368 300.23645,28.699817 290.95901,28.602376 C 281.06716,28.498203 274.08295,34.855959 273.7676,42.980053 C 273.76263,43.295762 273.87637,46.314305 273.03413,46.205171 C 272.18515,46.101352 272.21917,43.100525 272.22413,42.980053 C 272.41937,32.670093 280.74508,26.312337 294.29185,26.623085 L 294.29185,26.623085 z M 359.80086,54.789895 C 363.31724,61.81273 367.07102,65.374816 369.58393,66.958674 C 366.497,68.266509 365.33728,70.447415 365.33728,72.783163 L 365.32098,107.35804 C 365.32098,109.36037 366.84673,111.20785 367.82751,111.00127 C 372.60106,109.99781 372.85476,104.59816 374.23062,106.10726 C 374.77062,106.69793 372.2237,110.37021 370.97291,111.37367 C 368.30373,113.50922 362.06149,119.55659 359.93267,123.6647 C 356.75468,118.54639 353.33397,115.10974 353.28862,113.31895 C 353.28862,113.13682 353.41547,111.44383 353.28862,106.54344 C 353.28862,106.54344 336.65988,115.21887 335.21385,123.6647 C 333.70618,117.53159 330.31984,112.75804 325.1785,110.49706 C 326.68299,109.11482 329.68381,106.9906 329.68381,103.853 L 329.68381,73.051391 C 329.68381,69.97084 328.34055,68.422769 325.87972,67.848399 C 323.53263,67.308399 321.51897,71.73895 320.29122,70.470446 C 319.68779,69.855682 326.02287,64.450722 330.06791,59.80899 C 332.5872,56.935013 334.20543,54.789895 334.20543,54.789895 C 338.82944,56.286234 341.99114,60.612257 341.99114,64.07832 L 341.99114,103.22194 C 341.99114,105.70084 342.47905,109.75722 346.04751,109.28064 C 347.13248,109.13111 348.83539,108.20702 353.34531,105.2356 L 353.37472,75.387139 C 353.37968,70.418359 352.73232,69.460249 349.15074,66.87895 C 353.31129,64.720722 356.42125,61.685879 359.80086,54.789895 z M 339.42578,28.182849 C 342.66047,28.182849 345.52984,30.920053 345.38173,34.224896 C 345.16877,39.572809 339.35562,49.131234 339.35562,49.131234 C 339.35562,49.011116 333.42413,39.2734 333.42413,34.179541 C 333.42413,30.81588 336.74527,28.182849 339.42578,28.182849 z M 359.58826,28.091431 C 362.82472,28.091431 365.68736,30.82899 365.54421,34.138793 C 365.32133,39.486352 359.51988,49.045132 359.51988,49.045132 C 359.51988,48.924659 353.58661,39.188715 353.58661,34.093085 C 353.58661,30.731195 356.90952,28.091431 359.58826,28.091431 z M 387.83551,54.749147 C 394.29566,56.676352 396.0457,63.039068 395.85543,67.480958 C 397.97964,65.787611 402.34039,61.484265 405.19806,58.569541 C 407.40661,56.32025 408.30129,54.869265 408.36472,54.857927 L 416.47747,66.935997 L 407.1072,75.273044 C 405.43865,73.711863 400.64704,66.729422 399.71196,66.10332 C 399.71196,66.10332 395.85543,68.336312 395.85543,69.644147 L 395.8735,107.24926 C 395.76436,109.6123 396.13216,111.05832 397.45098,111.07604 C 400.52196,111.11678 401.53039,105.55592 402.62173,106.79537 C 402.88499,107.08804 402.66708,108.67226 400.82598,110.738 C 398.01862,113.90466 392.65476,117.96104 389.39527,123.80785 C 387.50208,119.13848 383.49141,112.57415 379.26247,110.68096 C 381.04688,109.56198 383.05558,107.45584 383.05558,104.21407 L 383.04885,70.286548 C 383.04885,68.289186 381.0646,66.688674 379.64161,66.688674 C 378.03472,66.688674 375.91688,70.372651 375.05161,69.08147 C 374.55732,68.359344 378.67712,65.651194 382.48795,61.352454 C 386.837,56.453478 387.6796,54.703439 387.83551,54.749147 z M 446.59062,67.389895 L 439.70598,54.989738 C 434.36976,59.075525 437.52507,56.866627 427.20838,64.645958 C 421.82645,68.697375 416.83499,71.3258 416.83003,76.380682 L 416.80062,109.64808 C 416.78928,117.5656 430.75417,124.02115 430.75417,124.02115 C 432.10877,116.31481 435.12767,112.00013 442.41909,111.73013 C 448.15216,111.52993 451.89779,116.31481 453.04617,123.92336 C 455.12787,115.99946 459.50633,113.08474 462.52523,110.58352 C 461.38322,109.5393 458.99078,108.82674 458.99078,103.60604 L 458.99078,72.042966 C 458.99078,70.441037 465.90483,64.645958 466.48381,64.645958 C 466.84487,64.645958 469.43928,66.827218 469.42759,70.184147 L 469.40987,121.10005 C 468.46983,125.27194 466.58621,126.94048 467.02381,127.38942 C 467.52802,127.8823 468.8309,125.28328 474.4357,119.37907 C 479.26771,114.27848 481.62613,113.07836 481.62613,111.38041 L 481.62613,65.783005 C 481.62613,61.628832 476.8005,55.689187 475.02743,54.783163 L 458.99078,69.235958 L 458.99078,46.625053 C 458.99078,41.143911 463.04716,29.853164 467.31507,26.518912 C 459.36814,26.341392 453.87743,38.705762 451.89779,43.186628 C 448.79952,38.126785 443.87609,35.378242 439.60854,35.79777 C 444.50893,39.02147 447.31452,42.768518 447.31452,49.332848 L 447.31452,102.8708 C 447.31452,106.32517 445.81003,111.32832 437.37058,111.43249 C 432.37239,111.49592 429.1944,107.68509 429.1944,103.19289 L 429.1944,67.354108 C 429.1944,66.684068 429.60755,63.917454 431.38027,63.608478 C 433.21003,63.28143 437.42232,72.69706 438.36271,73.637099 C 442.62566,70.613596 443.14759,69.879777 446.59062,67.389895 z M 539.35794,54.914974 C 544.64243,56.889305 547.44802,63.034108 547.25952,67.469619 C 549.39967,65.783005 553.74908,61.472927 556.61137,58.569541 C 558.80893,56.315289 559.33086,55.046785 559.39428,55.041824 L 568.36912,68.203084 L 557.78739,76.660603 C 556.18192,74.699029 551.41334,67.29706 550.48464,66.677336 C 550.48464,66.677336 547.23011,68.611273 547.23011,69.914147 L 547.19609,107.10611 C 547.082,109.46915 548.5507,110.84678 549.86987,110.7543 C 554.80464,110.40458 555.13806,105.10875 556.69286,106.19371 C 557.28956,106.61147 555.7103,109.29198 553.73739,110.98497 C 550.52361,113.75017 544.06983,117.9497 540.82204,123.80785 C 538.91078,119.13848 534.90011,112.56281 530.67117,110.66962 C 532.45558,109.5556 535.30192,107.58269 535.30192,104.35084 L 535.30192,71.146863 C 535.30192,69.151273 532.94349,66.677336 530.63716,67.045131 C 529.04798,67.2921 526.14956,71.015052 525.51849,69.609777 C 525.03058,68.495761 530.0922,65.639856 533.90125,61.347493 C 538.2457,56.4471 539.20345,54.862887 539.35794,54.914974 L 539.35794,54.914974 z M 631.36345,24.419148 C 644.28554,24.711825 655.97314,31.837415 656.89688,45.172651 C 657.40109,52.54521 653.54633,58.478478 649.69511,62.225879 C 644.88719,66.901982 641.4555,68.066312 634.89259,69.782336 C 645.35243,70.292926 658.12995,80.149343 656.57018,94.52206 C 654.30282,115.41375 631.76491,128.94422 617.61011,120.88214 C 609.87648,116.481 610.41471,105.05171 601.88881,104.37529 C 593.69491,103.73111 588.84625,110.08887 590.21255,116.50367 C 591.52676,122.64989 595.63522,126.50466 603.86172,123.48115 C 603.86172,123.48115 604.89459,122.7523 605.21172,123.37875 C 605.52708,124.00308 604.38542,124.62918 604.38542,124.62918 C 595.73267,127.75544 591.25676,124.08458 589.27747,118.68954 C 585.73168,109.00568 595.42227,99.004697 608.23522,97.34076 C 621.33944,95.63643 624.8916,112.01147 628.28786,116.78005 C 630.11267,119.33371 632.49377,120.08489 634.16904,119.9467 C 639.17184,119.52222 640.83578,115.24155 640.83578,112.54474 L 640.83578,80.355918 C 640.83578,75.51895 637.07881,70.819816 632.39597,70.876863 C 623.75491,70.981037 621.83904,78.841509 620.73141,77.860721 C 619.68719,76.919265 624.16806,69.832651 632.19613,69.73521 C 625.20058,69.782336 619.49833,62.99336 619.49833,58.369698 C 619.49833,53.055801 622.71707,51.289462 626.09704,50.778872 C 630.3079,50.12336 634.09428,53.067494 634.16904,57.336824 C 634.27782,63.270092 628.34633,63.796982 626.36526,63.796982 C 626.36526,67.44021 631.04278,68.892611 633.69247,68.375289 C 636.2231,67.864698 640.83578,65.926155 640.83578,60.04462 L 640.83578,37.863163 C 640.83578,32.675053 637.30168,26.496235 628.02424,26.398439 C 618.1207,26.296038 611.15491,32.652022 610.8392,40.77151 C 610.8229,41.093596 610.94337,44.105762 610.10574,44.001588 C 609.26172,43.899187 609.29078,40.891628 609.29078,40.77151 C 609.47963,30.454817 617.81668,24.103439 631.36345,24.419148 z M 715.0351,73.740918 L 715.0351,105.61474 C 714.91463,107.97281 716.5201,109.65304 717.84566,109.68245 C 720.91628,109.72143 721.63841,104.57513 722.74109,105.82096 C 722.98203,106.11859 722.79814,107.69643 720.9666,109.77989 C 718.14967,112.94655 711.06341,116.96891 707.94211,123.31993 C 706.0553,118.63922 703.32306,112.71092 699.09589,110.82411 C 700.87995,109.70513 703.37514,107.5306 703.37514,104.30052 L 703.36381,70.379383 C 703.36381,68.409659 702.1814,66.75706 700.76479,66.75706 C 699.15755,66.75706 697.53436,70.297887 696.61062,69.517296 C 695.33077,68.434107 702.4918,63.320407 706.84758,59.091824 C 708.4527,57.532061 708.47077,57.536667 710.81786,54.599265 C 711.80503,57.073202 715.65483,64.055643 720.02018,66.550485 C 716.33798,68.679659 715.02377,70.636273 715.0351,73.740918 L 715.0351,73.740918 z M 710.80794,27.528754 C 714.04298,27.528754 716.91199,30.266313 716.76424,33.582494 C 716.53959,38.930407 710.73317,48.49521 710.73317,48.49521 C 710.73317,48.361982 704.80664,38.626037 704.80664,33.530408 C 704.80664,30.173479 708.12778,27.528754 710.80794,27.528754 z M 744.18943,38.424423 L 744.18943,62.907257 C 744.18943,64.657297 749.30278,63.108871 749.30278,64.055643 L 749.30278,65.197297 C 749.30278,66.270919 744.18943,64.990722 744.09164,66.235131 L 744.09164,105.51056 C 744.09164,105.56726 743.44428,109.99781 746.74274,110.1523 C 749.69821,110.28411 751.24168,104.46139 752.2338,105.13143 C 753.32514,105.84895 751.31006,109.21722 745.03841,114.726 C 739.27239,119.79718 739.6338,119.27525 737.03443,123.33127 C 735.19829,119.68344 731.43459,113.23922 727.13125,110.54773 C 728.47947,109.8823 731.84278,107.46718 731.8364,103.30167 C 731.8364,103.30167 731.80239,73.298714 731.80239,66.441706 C 731.80239,64.434423 727.05152,66.568556 727.32152,65.099856 C 727.47601,64.267178 727.24002,64.302966 727.32152,64.262218 C 734.40636,61.032139 741.6992,46.659069 744.18943,38.424423 z M 818.27998,54.731076 C 822.01427,56.705761 825.95691,60.394344 827.01742,69.936824 C 833.50664,63.545052 842.1888,54.640013 842.22282,54.731076 C 844.31797,59.763281 849.24601,64.698045 851.46128,66.379698 C 851.46128,66.379698 848.41971,70.109383 848.41971,72.731076 L 848.41971,107.5306 C 848.41971,109.40076 849.82002,111.21919 851.24797,111.18517 C 853.84238,111.11678 854.84585,107.50119 855.20195,107.73045 C 855.93081,108.20241 855.49463,109.71647 853.77223,111.55261 C 850.52585,115.00733 845.04648,119.68804 843.37616,123.6647 C 840.97203,122.10352 836.45715,117.04863 836.45077,112.75804 L 836.42136,72.134029 C 836.4164,68.972336 835.18864,67.02706 832.61727,67.33143 C 830.85093,67.549344 826.61561,71.376115 826.61561,73.936155 L 826.62695,104.35084 C 826.62695,108.59749 828.7788,110.02048 830.13837,110.61115 C 824.57927,115.05765 820.66605,121.27226 819.92585,123.78517 C 817.72227,117.07273 812.58093,112.14966 810.70581,110.39324 C 810.70581,110.39324 814.4238,107.03135 814.4238,103.10643 L 814.4238,73.832336 C 814.4238,70.969698 813.82038,67.244974 810.92372,67.244974 C 807.62987,67.244974 805.96628,72.093635 804.99683,70.647611 C 804.34309,69.661863 812.47179,62.08769 815.42727,58.794186 C 816.78187,57.291116 816.52994,57.377572 818.27998,54.731076 z M 785.554,105.51056 L 785.52459,75.089501 C 785.51963,70.125328 784.96333,69.500997 781.38211,66.918281 C 785.554,64.76147 788.65227,61.731234 792.04321,54.83525 C 795.55498,61.851706 799.30699,65.41521 801.8199,66.999422 C 798.72802,68.300525 797.57963,70.488163 797.57963,72.817178 L 797.56368,107.40375 C 797.56368,109.40076 799.08412,111.25356 800.06987,111.04202 C 804.83845,110.03856 805.08577,104.63856 806.47333,106.148 C 807.0066,106.73832 804.45967,110.41096 803.20888,111.42115 C 800.54644,113.54359 794.3042,119.60194 792.16368,123.71041 C 788.99065,118.58076 785.57172,115.15544 785.52459,113.35474 C 785.52459,113.17119 785.65144,112.06816 785.52459,107.18584 C 785.52459,107.18584 769.73491,115.25926 768.28924,123.71041 C 766.77483,117.5656 763.38849,112.79702 758.25388,110.53604 C 759.7566,109.16017 762.75743,107.03135 762.75743,103.89198 L 762.75743,73.092139 C 762.75743,70.011588 761.56369,67.864698 759.12554,67.308399 C 756.7625,66.763793 754.57664,71.777926 753.35987,70.51084 C 752.75644,69.896076 759.10286,64.49147 763.13656,59.856116 C 765.64947,56.969029 767.27904,54.83525 767.27904,54.83525 C 771.90306,56.32025 775.06014,60.653005 775.06014,64.11269 L 775.06014,103.25631 C 775.06014,105.74619 775.55266,109.79619 779.12113,109.31466 C 780.20113,109.17647 781.0501,108.47064 785.554,105.51056 z M 205.73645,64.330604 C 205.85693,66.230171 205.73645,87.356076 205.73645,87.356076 C 207.67535,86.254816 213.59728,81.383832 215.05925,80.350958 C 215.05925,80.350958 212.06976,74.728438 209.48208,69.966233 C 207.39401,66.114659 205.64397,62.856942 205.73645,64.330604 L 205.73645,64.330604 z M 215.93764,54.749147 C 216.56232,55.924816 220.12582,62.557533 222.88075,67.676194 C 224.73992,71.158202 226.32236,73.855013 225.94358,74.022611 L 205.73645,89.221627 L 205.77543,105.21293 C 205.7935,108.82178 207.93401,111.54623 210.84838,111.83395 C 216.05315,112.35623 216.58642,105.17218 218.04378,106.41163 C 219.16275,107.38072 215.15208,112.96922 211.58185,115.90167 C 208.1452,118.71399 204.39957,123.80785 204.39957,123.80785 C 204.39957,123.80785 193.23886,118.16761 193.23886,109.596 L 193.23886,78.916273 C 193.23886,74.429029 193.91067,70.699698 199.87795,66.665997 C 206.56771,62.151116 215.93764,54.749147 215.93764,54.749147 L 215.93764,54.749147 z M 111.94087,64.450722 C 112.05638,66.343911 111.94087,87.471587 111.94087,87.471587 C 113.8748,86.36891 119.80169,81.497572 121.26543,80.453359 C 121.26543,80.453359 118.27595,74.837218 115.68827,70.075013 C 113.59984,66.230171 111.84343,62.965722 111.94087,64.450722 L 111.94087,64.450722 z M 122.13709,54.869265 C 122.76177,56.040328 126.33165,62.666667 129.07382,67.796312 C 130.94433,71.278674 132.52854,73.970525 132.14941,74.136351 L 111.94087,89.346705 L 111.98658,105.33304 C 111.99295,108.92454 113.39823,111.008 116.31295,111.32832 C 121.09784,111.84564 122.14205,104.87454 123.59941,106.11859 C 124.72476,107.08308 120.30555,112.25844 116.72575,115.17812 C 113.2891,117.99682 110.14547,123.68773 110.14547,123.68773 C 110.14547,123.68773 99.438308,118.28773 99.438308,109.70513 L 99.438308,79.030367 C 99.438308,74.54454 100.06299,70.699698 106.08236,66.781509 C 112.84193,62.380367 122.13709,54.869265 122.13709,54.869265 L 122.13709,54.869265 z M 503.38629,64.582533 C 503.50676,66.470761 503.38629,87.596666 503.38629,87.596666 C 505.33015,86.502139 511.25172,81.629383 512.70909,80.591548 C 512.70909,80.591548 509.71499,74.969029 507.13192,70.206824 C 505.05023,66.36836 503.29381,63.097533 503.38629,64.582533 z M 513.58747,54.996116 C 514.21216,56.172139 517.787,62.804856 520.5242,67.923163 C 522.38975,71.405525 523.97893,74.102336 523.59342,74.268162 L 503.38629,89.478516 L 503.43696,105.45848 C 503.4483,109.06733 505.58846,111.78682 508.49822,112.08623 C 513.70794,112.60178 514.22987,105.41277 515.69361,106.66356 C 516.80621,107.633 512.80192,113.21655 509.23842,116.14261 C 505.79042,118.9482 502.04302,124.06013 502.04302,124.06013 C 502.04302,124.06013 490.88869,118.42131 490.88869,109.84828 L 490.88869,79.168556 C 490.88869,74.676351 491.55413,70.947021 497.52779,66.91332 C 504.22393,62.396667 513.58747,54.996116 513.58747,54.996116 z M 875.95793,64.291273 C 871.32081,65.737297 871.22975,68.920249 871.22975,68.920249 L 871.22975,105.93009 C 871.22975,106.21001 873.4273,111.75281 876.63471,112.32682 C 878.66608,112.68789 882.50915,107.93702 882.50915,107.58269 L 882.50915,69.248714 C 879.63518,66.688674 878.66608,66.2121 875.95793,64.291273 z M 884.42679,54.714777 C 890.0153,62.058281 898.23719,67.131234 898.23719,67.131234 C 896.98144,69.242336 894.80691,69.5871 894.80691,76.115643 L 894.80691,107.89167 C 897.8825,112.00474 903.4416,119.48962 903.544,127.8334 L 903.544,128.45135 C 903.53443,129.00765 903.49864,129.56891 903.43522,130.13159 C 901.84108,144.31438 888.07498,153.29383 874.63734,152.73257 C 861.38998,152.18123 856.28939,141.85993 857.64258,134.68084 C 858.589,129.63233 862.87463,127.97974 865.89353,128.66785 C 868.47624,129.26489 870.8623,132.07048 870.23124,135.32324 C 869.56616,138.7893 865.13561,140.80934 862.03238,139.12733 C 861.10191,139.36332 860.33904,141.80785 860.94246,143.20816 C 863.78242,149.77745 870.53526,150.55166 875.64258,150.38584 C 882.8199,150.16119 890.79589,143.95332 892.09238,135.05501 C 893.84738,122.95887 883.14199,120.20537 882.67038,109.49856 L 868.78026,123.71678 C 866.3701,122.91848 859.28349,115.93107 859.0429,111.12812 C 858.95006,109.36674 859.07231,95.888359 859.0429,79.122847 C 859.02482,74.038556 861.45341,71.945525 869.43931,66.327611 C 878.66608,59.826706 879.7964,59.66584 884.42679,54.714777 z M 675.15873,64.307572 C 675.27885,66.207493 675.15873,87.339776 675.15873,87.339776 C 677.10365,86.232139 683.02416,81.361154 684.4879,80.32828 C 684.4879,80.32828 681.48707,74.699029 678.90436,69.941785 C 676.82231,66.091982 675.06589,62.832493 675.15873,64.307572 z M 685.35955,54.72647 C 685.98566,55.9071 689.55908,62.529895 692.29629,67.653163 C 694.16184,71.135525 695.75597,73.832336 695.37861,74.00454 L 675.15873,89.203556 L 675.1977,105.18989 C 675.20904,108.79911 677.36089,111.52993 680.27526,111.81623 C 685.48003,112.33816 686.01329,105.1495 687.46605,106.39356 C 688.58963,107.35804 684.574,112.94655 681.00412,115.87261 C 677.56251,118.68954 673.8151,123.80324 673.8151,123.80324 C 673.8151,123.80324 662.65617,118.14458 662.65617,109.57828 L 662.65617,78.898556 C 662.65617,74.406351 663.33259,70.677021 669.31156,66.648281 C 675.98963,62.133045 685.35955,54.72647 685.35955,54.72647 z "
     style="fill:black;fill-opacity:1;fill-rule:evenodd"
     id="_105394392" />
</svg>
