<svg width="590" height="129" viewBox="0 0 590 129" fill="none" xmlns="http://www.w3.org/2000/svg">
<path opacity="0.17" d="M128.042 64.0173C128.042 28.6615 99.3808 0 64.0251 0C28.6693 0 0.0078125 28.6615 0.0078125 64.0173C0.0078125 99.373 28.6693 128.035 64.0251 128.035C99.3808 128.035 128.042 99.373 128.042 64.0173Z" fill="#BEB8FF"/>
<path d="M75.9453 44.889L87.0075 55.9512C91.4631 60.4068 91.4631 67.6279 87.0075 72.1091L75.9453 83.1713" stroke="#0C0C13" stroke-width="5" stroke-linecap="round"/>
<path d="M37.6953 64.0173H75.952" stroke="#0C0C13" stroke-width="5" stroke-linecap="round"/>
<path opacity="0.41" d="M282.027 64.0173C282.027 28.6615 253.365 0 218.009 0C182.654 0 153.992 28.6615 153.992 64.0173C153.992 99.373 182.654 128.035 218.009 128.035C253.365 128.035 282.027 99.373 282.027 64.0173Z" fill="#BEB8FF"/>
<path d="M229.922 44.889L240.984 55.9512C245.44 60.4068 245.44 67.6279 240.984 72.1091L229.922 83.1713" stroke="#0C0C13" stroke-width="5" stroke-linecap="round"/>
<path d="M191.672 64.0173H229.929" stroke="#0C0C13" stroke-width="5" stroke-linecap="round"/>
<path opacity="0.73" d="M436.019 64.0173C436.019 28.6615 407.357 0 372.002 0C336.646 0 307.984 28.6615 307.984 64.0173C307.984 99.373 336.646 128.035 372.002 128.035C407.357 128.035 436.019 99.373 436.019 64.0173Z" fill="#BEB8FF"/>
<path d="M383.914 44.889L394.976 55.9512C399.432 60.4068 399.432 67.6279 394.976 72.1091L383.914 83.1713" stroke="#0C0C13" stroke-width="5" stroke-linecap="round"/>
<path d="M345.664 64.0173H383.921" stroke="#0C0C13" stroke-width="5" stroke-linecap="round"/>
<path d="M590.003 64.0173C590.003 28.6615 561.342 0 525.986 0C490.63 0 461.969 28.6615 461.969 64.0173C461.969 99.373 490.63 128.035 525.986 128.035C561.342 128.035 590.003 99.373 590.003 64.0173Z" fill="#BEB8FF"/>
<path d="M537.906 44.889L548.968 55.9512C553.424 60.4068 553.424 67.6279 548.968 72.1091L537.906 83.1713" stroke="#0C0C13" stroke-width="5" stroke-linecap="round"/>
<path d="M499.656 64.0173H537.913" stroke="#0C0C13" stroke-width="5" stroke-linecap="round"/>
</svg>
