<svg width="167" height="47" viewBox="0 0 167 47" fill="none" xmlns="http://www.w3.org/2000/svg">
<g clip-path="url(#clip0_10001_387)">
<path d="M102.666 29.7222C101.704 34.4523 98.0288 34.6931 97.292 34.6931C95.2118 34.6931 93.9723 33.5063 93.9723 31.511C93.983 30.9331 94.0469 30.3574 94.163 29.791L96.4339 18.5334H93.7383L91.4327 30.1006V30.264C91.311 30.8092 91.2471 31.3655 91.242 31.9239C91.1974 32.6049 91.2981 33.2876 91.5375 33.9274C91.777 34.5672 92.1498 35.1496 92.6317 35.6366C93.1135 36.1237 93.6936 36.5043 94.3338 36.7537C94.9741 37.0031 95.6602 37.1157 96.3473 37.084C97.3447 37.1266 98.3397 36.9551 99.2642 36.5811C100.189 36.207 101.021 35.6393 101.704 34.9167L101.349 36.8174V36.8604H104.009L107.676 18.5764H104.876L102.631 29.7566L102.666 29.7222ZM121.007 18.2926C120.037 18.2669 119.075 18.463 118.194 18.8657C117.313 19.2684 116.538 19.8668 115.928 20.6146L116.344 18.5592H113.691L110.077 36.8002V36.8432H112.772L115.017 25.6629C115.589 22.7819 117.817 20.7006 120.313 20.7006C120.82 20.6838 121.323 20.7922 121.776 21.0158C122.23 21.2395 122.621 21.5715 122.914 21.982L125.098 20.047C124.603 19.4769 123.983 19.0258 123.286 18.7279C122.59 18.4299 121.834 18.2928 121.076 18.327L121.007 18.2926ZM76.5243 20.8382L76.5156 20.8812H85.6947L73.4733 34.5985H73.4646L73.0052 36.8432H86.0327L86.5008 34.4695H76.7583L89.0231 20.7608V20.7522L89.4825 18.5162H76.9837L76.5243 20.8382ZM125.393 36.8002L125.384 36.8432H128.08L131.746 18.5162H129.102L125.393 36.8002ZM161.875 18.2926C160.899 18.2441 159.924 18.4032 159.015 18.7592C158.106 19.1152 157.284 19.6598 156.605 20.3566L158.694 10.1482H156.016L150.616 36.8088H153.303L155.547 25.6285C156.51 20.907 160.228 20.6662 160.956 20.6662C161.392 20.6205 161.833 20.6708 162.247 20.8134C162.661 20.956 163.038 21.1875 163.352 21.4914C163.666 21.7952 163.908 22.164 164.062 22.5714C164.215 22.9788 164.277 23.4147 164.241 23.8483C164.228 24.4256 164.168 25.0009 164.059 25.5683L161.771 36.869H164.458L166.824 25.3189C166.947 24.7217 167.011 24.1139 167.015 23.5043C167.058 22.822 166.956 22.1384 166.715 21.498C166.474 20.8576 166.1 20.2748 165.616 19.7878C165.133 19.3008 164.551 18.9205 163.909 18.6717C163.268 18.423 162.58 18.3113 161.892 18.3442L161.875 18.2926ZM144.037 18.2926C139.157 18.2926 135.733 21.7326 134.632 27.6496C134.464 28.5807 134.377 29.5245 134.372 30.4704C134.372 34.5383 136.86 37.0668 140.864 37.0668C142.011 37.0681 143.146 36.8404 144.202 36.3971C145.257 35.9538 146.213 35.3041 147.01 34.4867L145.458 32.6033C144.928 33.2577 144.256 33.7859 143.492 34.1491C142.729 34.5122 141.893 34.701 141.046 34.7017C139.14 34.7017 137.094 33.5751 137.094 30.4016C137.102 29.4827 137.201 28.5667 137.389 27.6668C137.676 25.7346 138.501 23.9205 139.772 22.4293C140.289 21.8814 140.915 21.4457 141.61 21.1496C142.306 20.8536 143.055 20.7037 143.811 20.7092C144.527 20.6813 145.236 20.8506 145.86 21.1982C146.484 21.5458 146.999 22.0583 147.348 22.6787V22.7217L149.324 21.0618C148.754 20.1848 147.961 19.4721 147.025 18.9951C146.09 18.5181 145.044 18.2936 143.993 18.3442L144.037 18.2926ZM130.099 13.4851H132.795L133.471 10.1482H130.784L130.099 13.4851ZM103.94 13.4851H106.636L107.303 10.1482H104.616L103.94 13.4851ZM96.7633 13.4851H99.459L100.126 10.1482H97.4394L96.7633 13.4851ZM60.8098 20.4942H54.7598L56.8834 10.1482H5.4234L0.0234375 36.8432H20.5398L21.8833 30.1694H9.7659L10.5027 26.4971H22.6114L23.8335 20.4942H11.7161L12.4529 16.8219H31.6518L27.5953 36.8432H36.0116L40.0594 16.8219H47.1236L43.0671 36.8432H51.4834L53.555 26.4971H59.6137L57.5334 36.8432H65.9411L71.3497 10.1482H62.9421L60.8098 20.4942Z" fill="black"/>
</g>
<defs>
<clipPath id="clip0_10001_387">
<rect width="167" height="47" fill="white"/>
</clipPath>
</defs>
</svg>
