<svg width="30" height="31" viewBox="0 0 30 31" fill="none" xmlns="http://www.w3.org/2000/svg">
<g id="logo--github 2" clip-path="url(#clip0_6011_1020)">
<path id="Vector" fill-rule="evenodd" clip-rule="evenodd" d="M14.6081 2.63338C11.6088 2.63379 8.70759 3.73358 6.4233 5.73601C4.139 7.73844 2.62068 10.5129 2.13994 13.563C1.65919 16.6132 2.24738 19.7401 3.79929 22.3843C5.3512 25.0286 7.76559 27.0177 10.6106 27.996C11.2422 28.1168 11.5129 27.717 11.5129 27.3731C11.5129 27.0291 11.5129 26.2481 11.5129 25.1603C8.00271 25.9413 7.26277 23.4125 7.26277 23.4125C7.01593 22.6156 6.49641 21.9382 5.80093 21.5066C4.65493 20.707 5.89117 20.7163 5.89117 20.7163C6.29147 20.7746 6.67354 20.9263 7.00822 21.16C7.3429 21.3936 7.62133 21.7029 7.82224 22.0644C8.17177 22.7103 8.75595 23.1867 9.44635 23.389C10.1368 23.5912 10.8768 23.5027 11.5039 23.1429C11.5549 22.4832 11.8371 21.8652 12.298 21.4043C9.50065 21.0696 6.5499 19.9539 6.5499 14.9707C6.52944 13.6764 6.99497 12.424 7.84931 11.475C7.46261 10.3539 7.50782 9.12275 7.97564 8.03501C7.97564 8.03501 9.03141 7.68172 11.4498 9.3645C13.5175 8.78339 15.6986 8.78339 17.7663 9.3645C20.1757 7.68172 21.2314 8.03501 21.2314 8.03501C21.6993 9.12275 21.7445 10.3539 21.3578 11.475C22.2121 12.424 22.6776 13.6764 22.6572 14.9707C22.6572 19.9725 19.7064 21.0696 16.891 21.395C17.1926 21.7099 17.4252 22.0878 17.5731 22.5032C17.721 22.9186 17.7807 23.3618 17.7483 23.803C17.7483 25.5415 17.7483 26.9454 17.7483 27.3731C17.7483 27.8007 17.9739 28.1261 18.6507 27.996C21.4994 27.0165 23.9163 25.0235 25.4679 22.3744C27.0196 19.7253 27.6045 16.5933 27.1179 13.54C26.6312 10.4868 25.1048 7.71201 22.8123 5.7133C20.5198 3.7146 17.6112 2.62269 14.6081 2.63338Z" fill="white"/>
</g>
<defs>
<clipPath id="clip0_6011_1020">
<rect width="28.8758" height="29.7508" fill="white" transform="translate(0.164062 0.77417)"/>
</clipPath>
</defs>
</svg>
