<svg width="602" height="275" viewBox="0 0 602 275" fill="none" xmlns="http://www.w3.org/2000/svg">
<g opacity="0.2">
<path fill-rule="evenodd" clip-rule="evenodd" d="M55.6345 75.3557C55.5157 75.8049 54.7361 75.8049 54.6173 75.3557C52.0735 65.7455 44.5066 58.1782 34.8967 55.6338C34.4476 55.5149 34.4476 54.7358 34.8967 54.6169C44.5066 52.0725 52.0735 44.5052 54.6173 34.895C54.7361 34.4459 55.5157 34.4459 55.6345 34.895C58.1783 44.5052 65.7452 52.0725 75.3551 54.6169C75.8042 54.7358 75.8042 55.5149 75.3551 55.6338C65.7452 58.1782 58.1783 65.7455 55.6345 75.3557ZM34.8965 110.345C34.4475 110.226 34.4475 109.447 34.8965 109.328C44.5066 106.783 52.0735 99.216 54.6173 89.6057C54.7361 89.1566 55.5157 89.1566 55.6345 89.6057C58.1783 99.216 65.7452 106.783 75.3553 109.328C75.8043 109.447 75.8043 110.226 75.3553 110.345C65.7452 112.889 58.1783 120.456 55.6345 130.067C55.5157 130.516 54.7361 130.516 54.6173 130.067C52.0735 120.456 44.5066 112.889 34.8965 110.345ZM0 137.192C0 124.318 8.75951 113.491 20.6433 110.345C21.0924 110.226 21.0924 109.447 20.6433 109.328C8.75951 106.181 0 95.354 0 82.4807C0 69.6075 8.75945 58.7801 20.6432 55.6338C21.0923 55.5149 21.0923 54.7358 20.6432 54.6169C8.75945 51.4706 0 40.6432 0 27.77C0 12.4331 12.433 9.15527e-05 27.7699 9.15527e-05C40.6438 9.15527e-05 51.4716 8.76041 54.6173 20.6451C54.7362 21.0942 55.5156 21.0942 55.6345 20.6451C58.7803 8.76041 69.608 9.35995e-05 82.4819 9.35995e-05C95.3558 9.35995e-05 106.184 8.76042 109.329 20.6451C109.448 21.0942 110.228 21.0942 110.347 20.6451C113.492 8.76042 124.32 9.35995e-05 137.194 9.35995e-05C150.064 9.35995e-05 160.889 8.75496 164.038 20.634C164.157 21.0827 164.935 21.0827 165.054 20.634C168.203 8.75496 179.028 9.35995e-05 191.898 9.35995e-05C204.772 9.35995e-05 215.6 8.76041 218.745 20.6451C218.864 21.0942 219.644 21.0942 219.763 20.6451C222.908 8.76041 233.736 9.35995e-05 246.61 9.35995e-05C259.484 9.35995e-05 270.312 8.76044 273.457 20.6451C273.576 21.0943 274.356 21.0943 274.475 20.6451C277.62 8.76043 288.448 9.35995e-05 301.322 9.35995e-05C314.196 9.35995e-05 325.024 8.76041 328.169 20.6451C328.288 21.0942 329.068 21.0942 329.187 20.6451C332.332 8.76041 343.16 9.35995e-05 356.034 9.35995e-05C368.908 9.35995e-05 379.736 8.76041 382.881 20.6451C383 21.0942 383.78 21.0942 383.899 20.6451C387.044 8.76041 397.872 9.35995e-05 410.746 9.35995e-05C423.468 9.35995e-05 434.191 8.55433 437.479 20.2245C437.601 20.6592 438.316 20.6592 438.438 20.2245C441.725 8.55433 452.449 9.35995e-05 465.171 9.35995e-05C478.044 9.35995e-05 488.872 8.76039 492.018 20.645C492.137 21.0942 492.916 21.0942 493.035 20.645C496.181 8.76039 507.009 9.35995e-05 519.883 9.35995e-05C532.105 9.35995e-05 542.483 7.89587 546.194 18.8648C546.328 19.2621 546.935 19.2621 547.069 18.8648C550.78 7.89587 561.158 9.35995e-05 573.381 9.35995e-05C588.717 9.35995e-05 601.15 12.4331 601.15 27.77C601.15 40.6432 592.391 51.4706 580.507 54.6169C580.058 54.7358 580.058 55.5149 580.507 55.6338C592.391 58.7801 601.15 69.6075 601.15 82.4807C601.15 95.354 592.391 106.181 580.507 109.328C580.058 109.447 580.058 110.226 580.507 110.345C592.391 113.491 601.15 124.318 601.15 137.192C601.15 150.065 592.391 160.892 580.507 164.039C580.058 164.157 580.058 164.937 580.507 165.056C592.391 168.202 601.15 179.029 601.15 191.903C601.15 204.776 592.391 215.603 580.507 218.749C580.058 218.868 580.058 219.647 580.507 219.766C592.391 222.913 601.15 233.74 601.15 246.613C601.15 261.95 588.717 274.383 573.381 274.383C561.158 274.383 550.78 266.487 547.069 255.518C546.935 255.121 546.328 255.121 546.194 255.518C542.483 266.487 532.105 274.383 519.883 274.383C507.009 274.383 496.181 265.623 493.035 253.738C492.916 253.289 492.137 253.289 492.018 253.738C488.872 265.623 478.044 274.383 465.171 274.383C452.449 274.383 441.725 265.829 438.438 254.159C438.316 253.724 437.601 253.724 437.479 254.159C434.191 265.829 423.468 274.383 410.746 274.383C397.872 274.383 387.044 265.623 383.899 253.738C383.78 253.289 383 253.289 382.881 253.738C379.736 265.623 368.908 274.383 356.034 274.383C343.16 274.383 332.332 265.623 329.187 253.738C329.068 253.289 328.288 253.289 328.169 253.738C325.024 265.623 314.196 274.383 301.322 274.383C288.448 274.383 277.62 265.623 274.475 253.738C274.356 253.289 273.576 253.289 273.457 253.738C270.312 265.623 259.484 274.383 246.61 274.383C233.736 274.383 222.908 265.623 219.763 253.738C219.644 253.289 218.864 253.289 218.745 253.738C215.6 265.623 204.772 274.383 191.898 274.383C179.028 274.383 168.203 265.628 165.054 253.749C164.935 253.3 164.157 253.3 164.038 253.749C160.889 265.628 150.064 274.383 137.194 274.383C124.32 274.383 113.492 265.623 110.347 253.738C110.228 253.289 109.448 253.289 109.329 253.738C106.184 265.623 95.3558 274.383 82.4819 274.383C69.608 274.383 58.7803 265.623 55.6345 253.738C55.5156 253.289 54.7362 253.289 54.6173 253.738C51.4715 265.623 40.6438 274.383 27.7699 274.383C12.433 274.383 0 261.95 0 246.613C0 233.74 8.75938 222.913 20.6431 219.766C21.0921 219.647 21.0921 218.868 20.6431 218.749C8.75938 215.603 0 204.776 0 191.903C0 179.029 8.7596 168.202 20.6435 165.056C21.0926 164.937 21.0926 164.157 20.6435 164.039C8.7596 160.892 0 150.065 0 137.192ZM218.745 239.488C218.864 239.937 219.644 239.937 219.763 239.488C222.306 229.878 229.873 222.311 239.483 219.766C239.932 219.647 239.932 218.868 239.483 218.749C229.873 216.205 222.306 208.638 219.763 199.028C219.644 198.578 218.864 198.578 218.745 199.028C216.202 208.638 208.635 216.205 199.025 218.749C198.576 218.868 198.576 219.647 199.025 219.766C208.635 222.311 216.202 229.878 218.745 239.488ZM253.737 218.749C253.288 218.868 253.288 219.647 253.737 219.766C263.347 222.311 270.914 229.878 273.457 239.488C273.576 239.937 274.356 239.937 274.475 239.488C277.018 229.878 284.585 222.311 294.195 219.766C294.644 219.647 294.644 218.868 294.195 218.749C284.585 216.205 277.018 208.638 274.475 199.027C274.356 198.578 273.576 198.578 273.457 199.027C270.914 208.638 263.347 216.205 253.737 218.749ZM294.196 164.039C294.645 164.157 294.645 164.937 294.196 165.056C284.585 167.6 277.018 175.167 274.475 184.778C274.356 185.227 273.576 185.227 273.457 184.778C270.914 175.167 263.347 167.6 253.736 165.056C253.287 164.937 253.287 164.157 253.736 164.039C263.347 161.494 270.914 153.927 273.457 144.317C273.576 143.867 274.356 143.867 274.475 144.317C277.018 153.927 284.585 161.494 294.196 164.039ZM218.745 144.317C218.864 143.867 219.644 143.867 219.763 144.317C222.306 153.927 229.873 161.494 239.484 164.039C239.933 164.157 239.933 164.937 239.484 165.056C229.873 167.6 222.306 175.167 219.763 184.778C219.644 185.227 218.864 185.227 218.745 184.778C216.202 175.167 208.635 167.6 199.024 165.056C198.575 164.937 198.575 164.157 199.024 164.039C208.635 161.494 216.202 153.927 218.745 144.317ZM294.195 109.328C294.645 109.447 294.645 110.226 294.195 110.345C284.585 112.889 277.018 120.456 274.475 130.067C274.356 130.516 273.576 130.516 273.457 130.067C270.914 120.456 263.347 112.889 253.737 110.345C253.288 110.226 253.288 109.447 253.737 109.328C263.347 106.783 270.914 99.216 273.457 89.6057C273.576 89.1566 274.356 89.1566 274.475 89.6057C277.018 99.216 284.585 106.783 294.195 109.328ZM273.457 75.3558C273.576 75.8049 274.356 75.8049 274.475 75.3558C277.018 65.7455 284.585 58.1782 294.195 55.6338C294.644 55.5149 294.644 54.7358 294.195 54.6169C284.585 52.0725 277.018 44.5052 274.475 34.8949C274.356 34.4458 273.576 34.4458 273.457 34.8949C270.914 44.5052 263.347 52.0725 253.737 54.6169C253.288 54.7358 253.288 55.5149 253.737 55.6338C263.347 58.1782 270.914 65.7455 273.457 75.3558ZM239.483 55.6338C239.932 55.5149 239.932 54.7358 239.483 54.6169C229.873 52.0725 222.306 44.5052 219.763 34.895C219.644 34.4459 218.864 34.4459 218.745 34.895C216.202 44.5052 208.635 52.0725 199.025 54.6169C198.576 54.7358 198.576 55.5149 199.025 55.6338C208.635 58.1782 216.202 65.7455 218.745 75.3557C218.864 75.8049 219.644 75.8049 219.763 75.3557C222.306 65.7455 229.873 58.1782 239.483 55.6338ZM219.763 89.6057C219.644 89.1566 218.864 89.1566 218.745 89.6057C216.202 99.216 208.635 106.783 199.025 109.328C198.576 109.447 198.576 110.226 199.025 110.345C208.635 112.889 216.202 120.456 218.745 130.067C218.864 130.516 219.644 130.516 219.763 130.067C222.306 120.456 229.873 112.889 239.483 110.345C239.932 110.226 239.932 109.447 239.483 109.328C229.873 106.783 222.306 99.216 219.763 89.6057ZM184.771 218.749C185.22 218.868 185.22 219.647 184.771 219.766C175.165 222.31 167.6 229.872 165.054 239.477C164.935 239.926 164.157 239.926 164.038 239.477C161.492 229.872 153.927 222.31 144.321 219.766C143.872 219.647 143.872 218.868 144.321 218.749C153.927 216.206 161.492 208.644 164.038 199.039C164.157 198.59 164.935 198.59 165.054 199.039C167.6 208.644 175.165 216.206 184.771 218.749ZM109.329 199.028C109.448 198.578 110.228 198.578 110.347 199.028C112.89 208.638 120.457 216.205 130.067 218.749C130.516 218.868 130.516 219.647 130.067 219.766C120.457 222.311 112.89 229.878 110.347 239.488C110.228 239.937 109.448 239.937 109.329 239.488C106.786 229.878 99.2187 222.311 89.6088 219.766C89.1598 219.647 89.1598 218.868 89.6088 218.749C99.2187 216.205 106.786 208.638 109.329 199.028ZM109.329 184.778C109.448 185.227 110.228 185.227 110.347 184.778C112.89 175.167 120.457 167.6 130.067 165.056C130.517 164.937 130.517 164.157 130.067 164.039C120.457 161.494 112.89 153.927 110.347 144.317C110.228 143.867 109.448 143.867 109.329 144.317C106.785 153.927 99.2185 161.494 89.6084 164.039C89.1593 164.157 89.1593 164.937 89.6084 165.056C99.2185 167.6 106.785 175.167 109.329 184.778ZM144.32 164.039C143.871 164.157 143.871 164.937 144.32 165.056C153.927 167.599 161.492 175.161 164.038 184.766C164.157 185.215 164.935 185.215 165.054 184.766C167.6 175.161 175.165 167.599 184.772 165.056C185.221 164.937 185.221 164.157 184.772 164.039C175.165 161.495 167.6 153.933 165.054 144.328C164.935 143.879 164.157 143.879 164.038 144.328C161.492 153.933 153.927 161.495 144.32 164.039ZM109.329 130.067C109.448 130.516 110.228 130.516 110.347 130.067C112.89 120.456 120.457 112.889 130.067 110.345C130.516 110.226 130.516 109.447 130.067 109.328C120.457 106.783 112.89 99.216 110.347 89.6057C110.228 89.1566 109.448 89.1566 109.329 89.6057C106.786 99.216 99.2186 106.783 89.6086 109.328C89.1595 109.447 89.1595 110.226 89.6086 110.345C99.2186 112.889 106.786 120.456 109.329 130.067ZM165.054 130.055C164.935 130.504 164.157 130.504 164.038 130.055C161.492 120.45 153.927 112.888 144.321 110.345C143.872 110.226 143.872 109.447 144.321 109.328C153.927 106.784 161.492 99.2218 164.038 89.6168C164.157 89.1681 164.935 89.1681 165.054 89.6168C167.6 99.2218 175.165 106.784 184.771 109.328C185.22 109.447 185.22 110.226 184.771 110.345C175.165 112.888 167.6 120.45 165.054 130.055ZM184.771 54.6169C185.22 54.7358 185.22 55.5149 184.771 55.6338C175.165 58.1772 167.6 65.7397 165.054 75.3447C164.935 75.7934 164.157 75.7934 164.038 75.3447C161.492 65.7397 153.927 58.1772 144.321 55.6338C143.872 55.5149 143.872 54.7358 144.321 54.6169C153.927 52.0735 161.492 44.511 164.038 34.9061C164.157 34.4573 164.935 34.4574 165.054 34.9061C167.6 44.511 175.165 52.0735 184.771 54.6169ZM109.329 34.895C109.448 34.4458 110.228 34.4458 110.347 34.895C112.89 44.5052 120.457 52.0725 130.067 54.6169C130.516 54.7358 130.516 55.5149 130.067 55.6338C120.457 58.1782 112.89 65.7455 110.347 75.3557C110.228 75.8049 109.448 75.8049 109.329 75.3557C106.786 65.7455 99.2187 58.1782 89.6087 55.6338C89.1596 55.5149 89.1596 54.7358 89.6087 54.6169C99.2187 52.0725 106.786 44.5052 109.329 34.895ZM75.355 218.749C75.8041 218.868 75.8041 219.647 75.355 219.766C65.7451 222.311 58.1783 229.878 55.6345 239.488C55.5157 239.937 54.7361 239.937 54.6173 239.488C52.0735 229.878 44.5067 222.311 34.8968 219.766C34.4477 219.647 34.4477 218.868 34.8968 218.749C44.5067 216.205 52.0735 208.638 54.6173 199.028C54.7361 198.578 55.5157 198.578 55.6345 199.028C58.1783 208.638 65.7451 216.205 75.355 218.749ZM34.8964 164.039C34.4473 164.157 34.4473 164.937 34.8964 165.056C44.5065 167.6 52.0735 175.167 54.6173 184.778C54.7361 185.227 55.5157 185.227 55.6345 184.778C58.1783 175.167 65.7453 167.6 75.3555 165.056C75.8045 164.937 75.8045 164.157 75.3555 164.039C65.7453 161.494 58.1783 153.927 55.6345 144.317C55.5157 143.867 54.7361 143.867 54.6173 144.317C52.0735 153.927 44.5065 161.494 34.8964 164.039ZM329.187 34.895C329.068 34.4459 328.288 34.4459 328.169 34.895C325.626 44.5052 318.059 52.0725 308.449 54.6169C308 54.7358 308 55.5149 308.449 55.6338C318.059 58.1782 325.626 65.7455 328.169 75.3557C328.288 75.8049 329.068 75.8049 329.187 75.3557C331.73 65.7455 339.297 58.1782 348.907 55.6338C349.356 55.5149 349.356 54.7358 348.907 54.6169C339.297 52.0725 331.73 44.5052 329.187 34.895ZM363.161 54.6169C362.712 54.7358 362.712 55.5149 363.161 55.6338C372.771 58.1782 380.338 65.7455 382.881 75.3557C383 75.8049 383.78 75.8049 383.899 75.3557C386.442 65.7455 394.009 58.1782 403.619 55.6338C404.068 55.5149 404.068 54.7358 403.619 54.6169C394.009 52.0725 386.442 44.5052 383.899 34.895C383.78 34.4458 383 34.4458 382.881 34.895C380.338 44.5052 372.771 52.0725 363.161 54.6169ZM383.899 89.6057C383.78 89.1566 383 89.1566 382.881 89.6057C380.338 99.216 372.771 106.783 363.161 109.328C362.712 109.447 362.712 110.226 363.161 110.345C372.771 112.889 380.338 120.456 382.881 130.067C383 130.516 383.78 130.516 383.899 130.067C386.443 120.456 394.009 112.889 403.619 110.345C404.069 110.226 404.069 109.447 403.619 109.328C394.009 106.783 386.443 99.216 383.899 89.6057ZM348.907 110.345C349.356 110.226 349.356 109.447 348.907 109.328C339.297 106.783 331.73 99.216 329.187 89.6057C329.068 89.1566 328.288 89.1566 328.169 89.6057C325.626 99.216 318.059 106.783 308.449 109.328C308 109.447 308 110.226 308.449 110.345C318.059 112.889 325.626 120.456 328.169 130.067C328.288 130.516 329.068 130.516 329.187 130.067C331.73 120.456 339.297 112.889 348.907 110.345ZM382.881 144.317C383 143.867 383.78 143.867 383.899 144.317C386.443 153.927 394.01 161.494 403.62 164.039C404.069 164.157 404.069 164.937 403.62 165.056C394.009 167.6 386.443 175.167 383.899 184.778C383.78 185.227 383 185.227 382.881 184.778C380.338 175.167 372.771 167.6 363.161 165.056C362.711 164.937 362.711 164.157 363.161 164.039C372.771 161.494 380.338 153.927 382.881 144.317ZM348.908 165.056C349.357 164.937 349.357 164.157 348.908 164.039C339.297 161.494 331.73 153.927 329.187 144.317C329.068 143.867 328.288 143.867 328.169 144.317C325.626 153.927 318.059 161.494 308.449 164.039C307.999 164.157 307.999 164.937 308.449 165.056C318.059 167.6 325.626 175.167 328.169 184.778C328.288 185.227 329.068 185.227 329.187 184.778C331.73 175.167 339.297 167.6 348.908 165.056ZM329.187 199.028C329.068 198.578 328.288 198.578 328.169 199.028C325.626 208.638 318.059 216.205 308.449 218.749C308 218.868 308 219.647 308.449 219.766C318.059 222.311 325.626 229.878 328.169 239.488C328.288 239.937 329.068 239.937 329.187 239.488C331.73 229.878 339.297 222.311 348.907 219.766C349.356 219.647 349.356 218.868 348.907 218.749C339.297 216.205 331.73 208.638 329.187 199.028ZM458.044 218.749C458.493 218.868 458.493 219.647 458.044 219.766C448.574 222.274 441.089 229.658 438.438 239.068C438.315 239.503 437.601 239.503 437.479 239.068C434.828 229.658 427.343 222.274 417.873 219.766C417.424 219.647 417.424 218.868 417.873 218.749C427.343 216.242 434.828 208.858 437.479 199.447C437.601 199.013 438.315 199.013 438.438 199.447C441.089 208.858 448.574 216.242 458.044 218.749ZM493.035 239.488C492.916 239.937 492.137 239.937 492.018 239.488C489.474 229.878 481.907 222.311 472.298 219.766C471.848 219.647 471.848 218.868 472.298 218.749C481.907 216.205 489.474 208.638 492.018 199.028C492.137 198.578 492.916 198.578 493.035 199.028C495.579 208.638 503.146 216.205 512.756 218.749C513.205 218.868 513.205 219.647 512.756 219.766C503.146 222.311 495.579 229.878 493.035 239.488ZM492.018 184.777C492.137 185.227 492.916 185.227 493.035 184.777C495.579 175.167 503.146 167.6 512.756 165.056C513.205 164.937 513.205 164.157 512.756 164.039C503.146 161.494 495.579 153.927 493.035 144.317C492.916 143.867 492.137 143.867 492.018 144.317C489.474 153.927 481.907 161.494 472.297 164.039C471.848 164.157 471.848 164.937 472.297 165.056C481.907 167.6 489.474 175.167 492.018 184.777ZM458.044 165.056C458.493 164.937 458.493 164.157 458.044 164.039C448.574 161.531 441.089 154.147 438.438 144.736C438.315 144.302 437.601 144.302 437.479 144.736C434.828 154.147 427.342 161.531 417.873 164.039C417.424 164.157 417.424 164.937 417.873 165.056C427.342 167.563 434.828 174.947 437.479 184.358C437.601 184.792 438.315 184.792 438.438 184.358C441.089 174.947 448.574 167.563 458.044 165.056ZM403.619 218.749C404.068 218.868 404.068 219.647 403.619 219.766C394.009 222.311 386.442 229.878 383.899 239.488C383.78 239.937 383 239.937 382.881 239.488C380.338 229.878 372.771 222.311 363.161 219.766C362.712 219.647 362.712 218.868 363.161 218.749C372.771 216.205 380.338 208.638 382.881 199.028C383 198.578 383.78 198.578 383.899 199.028C386.442 208.638 394.009 216.205 403.619 218.749ZM437.479 90.0257C437.601 89.591 438.315 89.591 438.438 90.0257C441.089 99.4361 448.574 106.82 458.044 109.328C458.493 109.447 458.493 110.226 458.044 110.345C448.574 112.852 441.089 120.236 438.438 129.647C438.315 130.081 437.601 130.081 437.479 129.647C434.828 120.236 427.342 112.852 417.873 110.345C417.424 110.226 417.424 109.447 417.873 109.328C427.342 106.82 434.828 99.4361 437.479 90.0257ZM458.044 54.6169C458.493 54.7358 458.493 55.5149 458.044 55.6338C448.574 58.1411 441.089 65.5255 438.438 74.9358C438.315 75.3705 437.601 75.3705 437.479 74.9358C434.828 65.5255 427.342 58.1411 417.873 55.6338C417.424 55.5149 417.424 54.7358 417.873 54.6169C427.342 52.1097 434.828 44.7253 437.479 35.3149C437.601 34.8803 438.315 34.8803 438.438 35.3149C441.089 44.7253 448.574 52.1097 458.044 54.6169ZM493.035 89.6058C492.916 89.1566 492.137 89.1566 492.018 89.6058C489.474 99.216 481.907 106.783 472.297 109.328C471.848 109.447 471.848 110.226 472.297 110.345C481.907 112.889 489.474 120.456 492.018 130.067C492.137 130.516 492.916 130.516 493.035 130.067C495.579 120.456 503.146 112.889 512.756 110.345C513.205 110.226 513.205 109.447 512.756 109.328C503.146 106.783 495.579 99.216 493.035 89.6058ZM512.756 54.6169C513.205 54.7358 513.205 55.5149 512.756 55.6338C503.146 58.1782 495.579 65.7455 493.035 75.3557C492.916 75.8048 492.137 75.8048 492.018 75.3557C489.474 65.7455 481.907 58.1782 472.297 55.6338C471.848 55.5149 471.848 54.7358 472.297 54.6169C481.907 52.0725 489.474 44.5052 492.018 34.895C492.137 34.4459 492.916 34.4459 493.035 34.895C495.579 44.5052 503.146 52.0725 512.756 54.6169ZM547.069 36.6751C546.935 36.2778 546.328 36.2778 546.194 36.6751C543.231 45.4329 536.018 52.2317 527.009 54.6169C526.56 54.7358 526.56 55.515 527.009 55.6339C536.018 58.019 543.231 64.8178 546.194 73.5756C546.328 73.973 546.935 73.973 547.069 73.5756C550.032 64.8178 557.245 58.019 566.254 55.6339C566.703 55.515 566.703 54.7358 566.254 54.6169C557.245 52.2317 550.032 45.4329 547.069 36.6751ZM566.253 219.766C566.703 219.647 566.703 218.868 566.253 218.749C557.245 216.364 550.032 209.565 547.069 200.808C546.935 200.41 546.328 200.41 546.194 200.808C543.231 209.565 536.018 216.364 527.01 218.749C526.561 218.868 526.561 219.647 527.01 219.766C536.018 222.152 543.231 228.95 546.194 237.708C546.328 238.105 546.935 238.105 547.069 237.708C550.032 228.95 557.245 222.152 566.253 219.766ZM566.254 165.056C566.703 164.937 566.703 164.157 566.254 164.039C557.245 161.653 550.032 154.855 547.069 146.097C546.935 145.699 546.328 145.699 546.194 146.097C543.231 154.855 536.018 161.653 527.009 164.039C526.56 164.157 526.56 164.937 527.009 165.056C536.018 167.441 543.231 174.239 546.194 182.997C546.328 183.395 546.935 183.395 547.069 182.997C550.032 174.239 557.245 167.441 566.254 165.056ZM566.254 110.345C566.703 110.226 566.703 109.447 566.254 109.328C557.245 106.943 550.032 100.144 547.069 91.3858C546.935 90.9885 546.328 90.9885 546.194 91.3858C543.231 100.144 536.018 106.943 527.009 109.328C526.56 109.447 526.56 110.226 527.009 110.345C536.018 112.73 543.231 119.529 546.194 128.286C546.328 128.684 546.935 128.684 547.069 128.286C550.032 119.529 557.245 112.73 566.254 110.345Z" fill="url(#paint0_linear_10007_445)"/>
</g>
<circle cx="82.4808" cy="27.7699" r="27.7699" fill="#BEB8FF"/>
<circle cx="82.4808" cy="82.4806" r="27.7699" fill="#BEB8FF"/>
<circle cx="301.325" cy="82.4806" r="27.7699" fill="#BEB8FF"/>
<circle cx="192.59" cy="82.4806" r="27.7699" fill="#BEB8FF"/>
<circle cx="137.887" cy="82.4806" r="27.7699" fill="#BEB8FF"/>
<circle cx="410.754" cy="137.191" r="27.7699" fill="#FF66CB"/>
<circle cx="519.887" cy="246.613" r="27.7699" fill="#D766FF"/>
<circle cx="247.301" cy="82.4806" r="27.7699" fill="#BEB8FF"/>
<rect x="109.422" y="54.7128" width="165.652" height="55.7712" rx="27.8856" fill="#6A79FF"/>
<rect x="329.094" y="54.7128" width="163.029" height="55.7712" rx="27.8856" fill="#FF669D"/>
<rect x="382.977" y="164.017" width="163.849" height="55.7712" rx="27.8856" fill="#FF66F9"/>
<circle cx="410.45" cy="27.8247" r="27.7699" fill="#FF6678"/>
<path d="M419 32.841L414.314 37.5275C412.426 39.4151 409.367 39.4151 407.468 37.5275L402.782 32.841" stroke="white" stroke-width="2.56855" stroke-linecap="round"/>
<path d="M410.891 16.6346L410.891 32.8419" stroke="white" stroke-width="2.56855" stroke-linecap="round"/>
<path d="M419 142.584L414.314 147.27C412.426 149.158 409.367 149.158 407.468 147.27L402.782 142.584" stroke="white" stroke-width="2.56855" stroke-linecap="round"/>
<path d="M410.891 126.377L410.891 142.585" stroke="white" stroke-width="2.56855" stroke-linecap="round"/>
<path d="M306.5 75.0587L311.186 79.7452C313.074 81.6328 313.074 84.692 311.186 86.5904L306.5 91.2769" stroke="#0C0C13" stroke-width="2.56855" stroke-linecap="round"/>
<path d="M290.297 83.1644H306.504" stroke="#0C0C13" stroke-width="2.56855" stroke-linecap="round"/>
<path d="M87.8125 75.0587L92.499 79.7452C94.3866 81.6328 94.3866 84.692 92.499 86.5904L87.8125 91.2769" stroke="#0C0C13" stroke-width="2.56855" stroke-linecap="round"/>
<path d="M71.6094 83.1644H87.8167" stroke="#0C0C13" stroke-width="2.56855" stroke-linecap="round"/>
<path d="M90.875 32.9537L86.1885 37.6402C84.3009 39.5278 81.2417 39.5278 79.3433 37.6402L74.6568 32.9537" stroke="#0C0C13" stroke-width="2.56855" stroke-linecap="round"/>
<path d="M82.7656 16.7473L82.7656 32.9546" stroke="#0C0C13" stroke-width="2.56855" stroke-linecap="round"/>
<path d="M528.375 251.537L523.689 256.223C521.801 258.111 518.742 258.111 516.843 256.223L512.157 251.537" stroke="white" stroke-width="2.56855" stroke-linecap="round"/>
<path d="M520.266 235.33L520.266 251.538" stroke="white" stroke-width="2.56855" stroke-linecap="round"/>
<defs>
<linearGradient id="paint0_linear_10007_445" x1="0" y1="9.15527e-05" x2="463.085" y2="367.765" gradientUnits="userSpaceOnUse">
<stop stop-color="white"/>
<stop offset="1" stop-color="white" stop-opacity="0.5"/>
</linearGradient>
</defs>
</svg>
