<?xml version="1.0" encoding="UTF-8"?>
<svg width="266px" height="254px" viewBox="0 0 266 254" version="1.1" xmlns="http://www.w3.org/2000/svg" xmlns:xlink="http://www.w3.org/1999/xlink">
    <title>Group</title>
    <g id="Page-1" stroke="none" stroke-width="1" fill="none" fill-rule="evenodd">
        <g id="Group" transform="translate(0.561589, 3.000000)">
            <g id="Group-7-Copy-2" transform="translate(51.438411, 0.000000)">
                <g id="Group-6-Copy" fill="#212B3B" fill-rule="nonzero">
                    <path d="M113.661283,-2.2793511e-15 C121.758064,-2.2793511e-15 129.088324,3.28485088 134.394389,8.59573623 C139.700453,13.9066216 142.982322,21.2435414 142.982322,29.3476793 L142.982322,29.3476793 L142.982322,76.2861971 C142.982322,77.2431746 142.93647,78.1894392 142.846914,79.1229174 L142.846914,79.1229174 L143,146 L129.814017,130.099905 L129.046418,129.174308 L109.524821,105.63452 L29.3210395,105.633876 C21.2242579,105.633876 13.8939981,102.349025 8.58793361,97.0381399 C3.28186912,91.7272546 -2.27728206e-15,84.3903349 -2.27728206e-15,76.2861971 L-2.27728206e-15,76.2861971 L-2.27728206e-15,29.3476793 C-2.27728206e-15,21.2435414 3.28186912,13.9066216 8.58793361,8.59573623 C13.8939981,3.28485088 21.2242579,-2.2793511e-15 29.3210395,-2.2793511e-15 L29.3210395,-2.2793511e-15 L113.661283,-2.2793511e-15 Z" id="Combined-Shape" stroke="#FFFFFF" stroke-width="5.55741371"></path>
                    <path d="M113.661283,1.02652894 C121.474853,1.02652894 128.548714,4.19648166 133.669182,9.3216018 C138.78965,14.446722 141.956725,21.5270095 141.956725,29.3476793 L141.956725,29.3476793 L141.956725,76.2861971 C141.956725,77.2270517 141.91083,78.1571813 141.821203,79.0744699 L141.821203,79.0744699 L141.967872,143.148197 L130.603173,129.444266 L129.835574,128.518669 L110.006401,104.607995 L29.3210395,104.607347 C21.5074688,104.607347 14.4336082,101.437394 9.31314029,96.3122745 C4.19267238,91.1871543 1.02559712,84.1068667 1.02559712,76.2861971 L1.02559712,76.2861971 L1.02559712,29.3476793 C1.02559712,21.5270095 4.19267238,14.446722 9.31314029,9.3216018 C14.4336082,4.19648166 21.5074688,1.02652894 29.3210395,1.02652894 L29.3210395,1.02652894 L113.661283,1.02652894 Z" id="Combined-Shape" stroke="#212B3B" stroke-width="3.50435583"></path>
                </g>
                <polyline id="Path-5-Copy" stroke="#FFFFFF" stroke-width="8.03370113" stroke-linecap="round" stroke-linejoin="round" points="93.0286911 33.5745612 117.643011 52.2544877 93.0286911 72.5826433"></polyline>
                <path d="M51.215178,82.8479281 C54.2825298,82.8479281 56.0914811,80.9554943 56.012831,77.6437354 L55.3836307,62.977374 L68.7541394,71.8087314 C69.6192899,72.3606912 70.6417406,72.6760968 71.8214912,72.6760968 C74.259643,72.6760968 76.6191444,70.783663 76.6191444,67.6296068 C76.6191444,65.6583217 75.6753438,64.3178478 73.7090924,63.2139283 L59.6307334,55.565342 L73.7090924,47.9167555 C75.6753438,46.812836 76.6191444,45.4723621 76.6191444,43.501077 C76.6191444,40.3470208 74.259643,38.454587 71.8214912,38.454587 C70.6417406,38.454587 69.6192899,38.7699926 68.7541394,39.3219524 L55.3836307,47.9167555 L56.012831,32.619583 C56.0914811,29.3078241 54.2825298,27.4153903 51.215178,27.4153903 C47.9905259,27.4153903 46.0242745,29.4655268 46.1029247,32.619583 L46.7321251,47.9167555 L33.2043162,39.3219524 C32.3391657,38.7699926 31.316715,38.454587 30.1369644,38.454587 C27.6988126,38.454587 25.3393112,40.3470208 25.3393112,43.501077 C25.3393112,45.4723621 26.2831118,46.812836 28.2493631,47.9167555 L42.3277222,55.565342 L28.2493631,63.2139283 C26.2831118,64.3178478 25.3393112,65.6583217 25.3393112,67.6296068 C25.3393112,70.783663 27.6988126,72.6760968 30.1369644,72.6760968 C31.316715,72.6760968 32.3391657,72.3606912 33.2043162,71.8087314 L46.7321251,62.977374 L46.1029247,77.6437354 C46.0242745,80.7977916 47.9905259,82.8479281 51.215178,82.8479281 Z" id="*-copy" fill="#FF5959" fill-rule="nonzero"></path>
            </g>
            <path d="M11.5597668,232 L11.5597668,167.103063 L-5.68434189e-14,167.103063 L-5.68434189e-14,232 L11.5597668,232 Z M34.1529592,232 L34.1529592,207.280577 C34.1529592,203.879872 34.8890587,201.2939 36.3612577,199.52266 C37.8334568,197.751421 39.9830739,196.865801 42.8101091,196.865801 C45.5770546,196.865801 47.6381802,197.736399 48.9934859,199.477593 C50.3487916,201.218788 51.0264444,203.789737 51.0264444,207.190442 L51.0264444,207.190442 L51.0264444,232 L62.5862112,232 L62.5862112,207.374936 C62.5862112,203.931981 63.3770018,201.31972 64.958583,199.538152 C66.5401641,197.756585 68.7444723,196.865801 71.5715076,196.865801 C74.339392,196.865801 76.4653018,197.736399 77.9492371,199.477593 C79.4331724,201.218788 80.1751401,203.789737 80.1751401,207.190442 L80.1751401,207.190442 L80.1751401,232 L91.7349069,232 L91.7349069,205.680687 C91.7349069,201.477221 91.0138298,197.943192 89.5716757,195.0786 C88.1295215,192.214009 86.1014923,190.035051 83.4875879,188.541727 C80.8736835,187.048403 77.7940835,186.30174 74.2487879,186.30174 C71.187027,186.30174 68.3470819,186.933387 65.7289524,188.19668 C63.110823,189.459974 60.9994661,191.200464 59.3948818,193.418152 C57.9320718,191.116902 55.9995759,189.355521 53.597394,188.134009 C51.1952121,186.912497 48.5547837,186.30174 45.6761088,186.30174 C43.2941133,186.30174 41.0928566,186.76368 39.0723385,187.68756 C37.0518205,188.61144 35.3110954,189.83483 33.8501632,191.35773 L33.8501632,191.35773 L33.0614851,186.932683 L22.5931924,186.932683 L22.5931924,232 L34.1529592,232 Z M145.050231,250.026927 L145.050231,186.932683 L134.581938,186.932683 L133.828469,192.552014 C132.435138,190.809411 130.547944,189.332048 128.166887,188.119925 C125.785831,186.907802 123.038602,186.30174 119.925202,186.30174 C116.004345,186.30174 112.542612,187.258013 109.540002,189.170557 C106.537392,191.083101 104.19483,193.766954 102.512317,197.222115 C100.829804,200.677276 99.9885472,204.758685 99.9885472,209.466341 C99.9885472,214.135503 100.829804,218.212687 102.512317,221.697893 C104.19483,225.183099 106.532228,227.876575 109.52451,229.778322 C112.516792,231.680069 115.983689,232.630942 119.925202,232.630942 C123.42543,232.630942 126.459963,231.903762 129.0288,230.449403 C130.690988,229.508346 132.104145,228.444052 133.268271,227.256519 L133.490411,227.023 L133.490464,250.026927 L145.050231,250.026927 Z M122.899645,222.09364 C119.736482,222.09364 117.190414,220.929401 115.261438,218.600923 C113.332463,216.272445 112.367976,213.227585 112.367976,209.466341 C112.367976,205.705098 113.337627,202.665402 115.27693,200.347252 C117.216233,198.029101 119.757138,196.870026 122.899645,196.870026 C124.768999,196.870026 126.504326,197.357551 128.105624,198.332602 C129.706922,199.307652 131.00472,200.720465 131.999018,202.571042 C132.993315,204.421619 133.490464,206.720052 133.490464,209.466341 C133.490464,212.152541 132.993315,214.435952 131.999018,216.316574 C131.00472,218.197195 129.706922,219.630195 128.105624,220.615573 C126.504326,221.600951 124.768999,222.09364 122.899645,222.09364 Z M167.644295,232 L167.644295,167.103063 L156.084528,167.103063 L156.084528,232 L167.644295,232 Z M185.258957,232.661926 C187.41186,232.661926 189.198122,231.958219 190.617743,230.550804 C192.037363,229.143389 192.747173,227.433179 192.747173,225.420172 C192.747173,223.386509 192.037363,221.665736 190.617743,220.257851 C189.198122,218.849967 187.41186,218.146025 185.258957,218.146025 C183.053475,218.146025 181.240689,218.849967 179.820599,220.257851 C178.400509,221.665736 177.690464,223.386509 177.690464,225.420172 C177.690464,227.433179 178.400509,229.143389 179.820599,230.550804 C181.240689,231.958219 183.053475,232.661926 185.258957,232.661926 Z M215.831868,232.514049 C218.989397,232.514049 221.522087,231.982161 223.429936,230.918384 C225.337786,229.854608 227.044241,228.372081 228.549302,226.470804 L228.549302,226.470804 L229.42389,232 L240.109069,232 L240.109069,202.5302 C240.109069,197.687341 238.583587,193.771883 235.532624,190.783826 C232.48166,187.795769 227.957793,186.30174 221.961023,186.30174 C217.051503,186.30174 212.914933,187.387112 209.551315,189.557854 C206.187697,191.728597 203.893254,194.818055 202.667987,198.82623 L202.667987,198.82623 L212.618005,202.454149 C213.155996,200.36603 214.220477,198.784214 215.811447,197.708701 C217.402417,196.633188 219.272007,196.095432 221.420216,196.095432 C223.866057,196.095432 225.665698,196.638352 226.819139,197.724193 C227.972581,198.810033 228.549302,199.988591 228.549302,201.259865 L228.549302,201.259865 L228.549302,204.459644 L217.288106,205.717304 C211.774871,206.338857 207.647456,207.900252 204.905861,210.401488 C202.164266,212.902724 200.793468,216.035842 200.793468,219.800841 C200.793468,222.408173 201.425115,224.663651 202.688408,226.567276 C203.951701,228.4709 205.709326,229.937936 207.961284,230.968381 C210.213241,231.998826 212.83677,232.514049 215.831868,232.514049 Z M218.607733,223.387917 C216.772179,223.387917 215.340588,222.949919 214.312959,222.073923 C213.28533,221.197927 212.771516,220.112556 212.771516,218.81781 C212.771516,217.483629 213.278523,216.358355 214.292538,215.441986 C215.306552,214.525617 216.817246,213.938334 218.82462,213.680136 L218.82462,213.680136 L228.549302,212.459093 L228.549302,213.184395 C228.549302,215.392694 228.16177,217.252425 227.386706,218.763588 C226.611642,220.274752 225.484959,221.423264 224.006657,222.209125 C222.528355,222.994987 220.728714,223.387917 218.607733,223.387917 Z M257.95246,181.137308 C260.032128,181.137308 261.771915,180.458246 263.171818,179.100124 C264.571722,177.742002 265.271674,176.09681 265.271674,174.164549 C265.271674,172.173137 264.571722,170.498369 263.171818,169.140247 C261.771915,167.782125 260.032128,167.103063 257.95246,167.103063 C255.81364,167.103063 254.049442,167.782125 252.659867,169.140247 C251.270291,170.498369 250.575503,172.173137 250.575503,174.164549 C250.575503,176.09681 251.270291,177.742002 252.659867,179.100124 C254.049442,180.458246 255.81364,181.137308 257.95246,181.137308 Z M263.702768,232 L263.702768,186.932683 L252.143001,186.932683 L252.143001,232 L263.702768,232 Z" id="lmql.ai" fill="#212B3B" fill-rule="nonzero"></path>
        </g>
    </g>
</svg>