<svg width="156" height="21" viewBox="0 0 156 21" fill="none" xmlns="http://www.w3.org/2000/svg">
<path d="M149.568 20.7441C146.369 20.7441 143.984 19.2497 143.328 16.8114L145.976 16.2346C146.422 17.6504 147.654 18.4369 149.594 18.4369C151.482 18.4369 152.609 17.6766 152.609 16.4444C152.609 12.905 143.8 15.6578 143.8 10.3356C143.8 7.66143 146.055 5.95728 149.306 5.95728C152.347 5.95728 154.628 7.42547 155.388 9.70642L152.793 10.3356C152.268 9.02475 151.115 8.26444 149.306 8.26444C147.68 8.26444 146.605 8.89367 146.605 9.99481C146.605 13.1934 155.388 10.5978 155.388 16.1298C155.388 18.9875 153.002 20.7441 149.568 20.7441Z" fill="url(#paint0_linear_8018_3)"/>
<path d="M136.055 20.7178C134.508 20.7178 132.751 19.8526 131.781 18.6204V20.4294H129.055V0.713623H131.781V8.18569C132.542 6.8748 134.272 5.95717 135.924 5.95717C139.516 5.95717 142.059 8.91978 142.059 13.1146C142.059 17.5979 139.594 20.7178 136.055 20.7178ZM131.834 13.2457C131.834 16.1821 133.381 18.2533 135.609 18.2533C137.811 18.2533 139.358 16.1559 139.358 13.1933C139.358 10.4666 137.811 8.55273 135.635 8.55273C133.407 8.55273 131.834 10.5191 131.834 13.2457Z" fill="url(#paint1_linear_8018_3)"/>
<path d="M118.456 20.7441C115.782 20.7441 113.789 19.0923 113.789 16.8376C113.789 13.8226 116.489 13.0622 118.089 12.5903C121.261 11.6203 123.306 11.5941 123.306 10.1783C123.306 9.1558 122.179 8.50036 120.579 8.50036C118.875 8.50036 117.328 9.28689 116.909 10.5191L114.313 9.68016C115.074 7.34678 117.486 6.03589 120.553 6.03589C124.066 6.03589 126.085 7.76626 126.085 10.9386V20.4294H123.437V18.8564C122.153 20.1148 120.37 20.7441 118.456 20.7441ZM119.269 18.3845C120.92 18.332 122.677 17.4406 123.411 16.4968V13.2196C122.86 13.7963 121.182 14.242 119.583 14.6615C117.722 15.1335 116.594 15.4218 116.568 16.6016C116.516 17.8601 117.696 18.4893 119.269 18.3845Z" fill="url(#paint2_linear_8018_3)"/>
<path d="M108.312 20.4294V0.713623H111.092V20.4294H108.312Z" fill="url(#paint3_linear_8018_3)"/>
<path d="M105.559 20.377C103.409 21.1111 99.9483 21.0586 99.9483 16.3657V9.44416H97.5625V6.27181H99.9483V1.78857H103.226V6.27181H105.926V9.44416H103.278V16.2608C103.278 17.729 104.615 17.8601 105.559 17.4668V20.377Z" fill="url(#paint4_linear_8018_3)"/>
<path d="M82.9141 20.4295V6.27189H86.2962V8.13335C87.1351 6.84868 88.8917 5.95728 90.727 5.95728C93.6896 5.95728 96.1278 8.10713 96.1278 11.6203V20.4295H92.7195V12.4855C92.7195 10.3094 91.5135 9.15584 89.7831 9.15584C87.9741 9.15584 86.401 10.4143 86.401 12.6166V20.4295H82.9141Z" fill="url(#paint5_linear_8018_3)"/>
<path d="M72.1673 20.7441C69.3882 20.7441 67.4219 19.1186 67.4219 16.8114C67.4219 14.0847 69.5455 13.0622 71.3545 12.5117C74.3958 11.5678 76.703 11.7514 76.703 10.4143C76.703 9.54907 75.7329 9.10337 74.4745 9.10337C73.1636 9.10337 71.6692 9.73259 71.3545 10.7551L67.9725 9.68016C68.7852 7.21569 71.3808 6.03589 74.3696 6.03589C78.0401 6.03589 80.321 7.74004 80.321 10.9386V20.4294H76.8341V19.0137C75.5494 20.2459 73.7928 20.7441 72.1673 20.7441ZM73.7141 17.8339C75.1561 17.6241 76.3097 16.9163 76.8078 16.1035V13.6128C76.3359 14.1372 75.0775 14.4256 73.6617 14.7402C71.9576 15.1072 70.8826 15.3432 70.9088 16.4706C70.9351 17.5717 72.0886 18.1223 73.7141 17.8339Z" fill="url(#paint6_linear_8018_3)"/>
<path d="M61.4274 20.4294V6.27179H64.9406V20.4294H61.4274ZM61.375 3.85975V0.713623H64.9406V3.85975H61.375Z" fill="url(#paint7_linear_8018_3)"/>
<path d="M51.5547 20.4294V6.27186H54.9106V7.92357C56.1428 6.1932 57.9256 6.16698 59.5249 6.27186V9.4442C57.2177 9.4442 54.9106 9.94234 54.9106 12.9049V20.4294H51.5547Z" fill="url(#paint8_linear_8018_3)"/>
<path d="M40.8157 20.7441C38.0366 20.7441 36.0703 19.1186 36.0703 16.8114C36.0703 14.0847 38.1939 13.0622 40.003 12.5117C43.0442 11.5678 45.3514 11.7514 45.3514 10.4143C45.3514 9.54907 44.3813 9.10337 43.1229 9.10337C41.812 9.10337 40.3176 9.73259 40.003 10.7551L36.6209 9.68016C37.4336 7.21569 40.0292 6.03589 43.018 6.03589C46.6885 6.03589 48.9695 7.74004 48.9695 10.9386V20.4294H45.4825V19.0137C44.1978 20.2459 42.4412 20.7441 40.8157 20.7441ZM42.3626 17.8339C43.8046 17.6241 44.9581 16.9163 45.4563 16.1035V13.6128C44.9843 14.1372 43.7259 14.4256 42.3101 14.7402C40.606 15.1072 39.5311 15.3432 39.5573 16.4706C39.5835 17.5717 40.7371 18.1223 42.3626 17.8339Z" fill="url(#paint9_linear_8018_3)"/>
<path d="M26.6253 20.4293L21.5391 6.27173H25.026L28.513 16.1034L31.9737 6.27173H35.4869L30.2696 20.4293H26.6253Z" fill="url(#paint10_linear_8018_3)"/>
<path d="M7.32812 20.4295V6.27189H10.7102V8.13335C11.5492 6.84868 13.3058 5.95728 15.141 5.95728C18.1036 5.95728 20.5419 8.10713 20.5419 11.6203V20.4295H17.1336V12.4855C17.1336 10.3094 15.9276 9.15584 14.1972 9.15584C12.3882 9.15584 10.8151 10.4143 10.8151 12.6166V20.4295H7.32812Z" fill="url(#paint11_linear_8018_3)"/>
<path d="M0.484375 20.4294V0.713623H4.23352V20.4294H0.484375Z" fill="url(#paint12_linear_8018_3)"/>
<defs>
<linearGradient id="paint0_linear_8018_3" x1="112.395" y1="1.06804" x2="154.605" y2="24.7341" gradientUnits="userSpaceOnUse">
<stop stop-color="#535353"/>
<stop offset="1" stop-color="#7D7D7D" stop-opacity="0.8"/>
</linearGradient>
<linearGradient id="paint1_linear_8018_3" x1="112.395" y1="1.06793" x2="154.605" y2="24.734" gradientUnits="userSpaceOnUse">
<stop stop-color="#535353"/>
<stop offset="1" stop-color="#7D7D7D" stop-opacity="0.8"/>
</linearGradient>
<linearGradient id="paint2_linear_8018_3" x1="112.391" y1="1.068" x2="154.601" y2="24.7341" gradientUnits="userSpaceOnUse">
<stop stop-color="#535353"/>
<stop offset="1" stop-color="#7D7D7D" stop-opacity="0.8"/>
</linearGradient>
<linearGradient id="paint3_linear_8018_3" x1="112.392" y1="1.06794" x2="154.602" y2="24.734" gradientUnits="userSpaceOnUse">
<stop stop-color="#535353"/>
<stop offset="1" stop-color="#7D7D7D" stop-opacity="0.8"/>
</linearGradient>
<linearGradient id="paint4_linear_8018_3" x1="-1.56359" y1="3.03494" x2="103.502" y2="26.1858" gradientUnits="userSpaceOnUse">
<stop stop-color="#2C2C2C"/>
<stop offset="1" stop-color="#2F2F2F"/>
</linearGradient>
<linearGradient id="paint5_linear_8018_3" x1="-1.5569" y1="3.03502" x2="103.508" y2="26.1858" gradientUnits="userSpaceOnUse">
<stop stop-color="#2C2C2C"/>
<stop offset="1" stop-color="#2F2F2F"/>
</linearGradient>
<linearGradient id="paint6_linear_8018_3" x1="-1.56094" y1="3.03497" x2="103.504" y2="26.1858" gradientUnits="userSpaceOnUse">
<stop stop-color="#2C2C2C"/>
<stop offset="1" stop-color="#2F2F2F"/>
</linearGradient>
<linearGradient id="paint7_linear_8018_3" x1="-1.56136" y1="3.03491" x2="103.504" y2="26.1857" gradientUnits="userSpaceOnUse">
<stop stop-color="#2C2C2C"/>
<stop offset="1" stop-color="#2F2F2F"/>
</linearGradient>
<linearGradient id="paint8_linear_8018_3" x1="-1.56352" y1="3.03498" x2="103.502" y2="26.1858" gradientUnits="userSpaceOnUse">
<stop stop-color="#2C2C2C"/>
<stop offset="1" stop-color="#2F2F2F"/>
</linearGradient>
<linearGradient id="paint9_linear_8018_3" x1="-1.55975" y1="3.03497" x2="103.506" y2="26.1858" gradientUnits="userSpaceOnUse">
<stop stop-color="#2C2C2C"/>
<stop offset="1" stop-color="#2F2F2F"/>
</linearGradient>
<linearGradient id="paint10_linear_8018_3" x1="-1.56411" y1="3.03485" x2="103.501" y2="26.1857" gradientUnits="userSpaceOnUse">
<stop stop-color="#2C2C2C"/>
<stop offset="1" stop-color="#2F2F2F"/>
</linearGradient>
<linearGradient id="paint11_linear_8018_3" x1="-1.55888" y1="3.03501" x2="103.507" y2="26.1858" gradientUnits="userSpaceOnUse">
<stop stop-color="#2C2C2C"/>
<stop offset="1" stop-color="#2F2F2F"/>
</linearGradient>
<linearGradient id="paint12_linear_8018_3" x1="-1.56061" y1="3.03491" x2="103.505" y2="26.1857" gradientUnits="userSpaceOnUse">
<stop stop-color="#2C2C2C"/>
<stop offset="1" stop-color="#2F2F2F"/>
</linearGradient>
</defs>
</svg>
