<svg width="156" height="21" viewBox="0 0 156 21" fill="none" xmlns="http://www.w3.org/2000/svg">
<path d="M150.037 20.0802C146.838 20.0802 144.452 18.5858 143.797 16.1475L146.445 15.5708C146.891 16.9865 148.123 17.773 150.063 17.773C151.951 17.773 153.078 17.0127 153.078 15.7805C153.078 12.2411 144.269 14.994 144.269 9.67176C144.269 6.99755 146.524 5.29339 149.775 5.29339C152.816 5.29339 155.097 6.76159 155.857 9.04253L153.261 9.67176C152.737 8.36087 151.584 7.60056 149.775 7.60056C148.149 7.60056 147.074 8.22978 147.074 9.33093C147.074 12.5295 155.857 9.93394 155.857 15.4659C155.857 18.3236 153.471 20.0802 150.037 20.0802Z" fill="url(#paint0_linear_8018_18)"/>
<path d="M136.524 20.054C134.977 20.054 133.22 19.1888 132.25 17.9566V19.7656H129.523V0.0498409H132.25V7.5219C133.01 6.21102 134.741 5.29339 136.392 5.29339C139.984 5.29339 142.527 8.256 142.527 12.4508C142.527 16.9341 140.063 20.054 136.524 20.054ZM132.303 12.5819C132.303 15.5183 133.849 17.5895 136.078 17.5895C138.28 17.5895 139.827 15.4921 139.827 12.5295C139.827 9.80285 138.28 7.88895 136.104 7.88895C133.876 7.88895 132.303 9.85528 132.303 12.5819Z" fill="url(#paint1_linear_8018_18)"/>
<path d="M118.925 20.0802C116.25 20.0802 114.258 18.4285 114.258 16.1738C114.258 13.1587 116.958 12.3984 118.558 11.9265C121.73 10.9564 123.775 10.9302 123.775 9.51445C123.775 8.49196 122.648 7.83652 121.048 7.83652C119.344 7.83652 117.797 8.62305 117.378 9.85528L114.782 9.01632C115.542 6.68294 117.955 5.37205 121.022 5.37205C124.535 5.37205 126.554 7.10242 126.554 10.2748V19.7656H123.906V18.1925C122.621 19.451 120.838 20.0802 118.925 20.0802ZM119.737 17.7206C121.389 17.6682 123.146 16.7768 123.88 15.8329V12.5557C123.329 13.1325 121.651 13.5782 120.052 13.9977C118.19 14.4696 117.063 14.758 117.037 15.9378C116.984 17.1963 118.164 17.8255 119.737 17.7206Z" fill="url(#paint2_linear_8018_18)"/>
<path d="M108.781 19.7656V0.0498409H111.56V19.7656H108.781Z" fill="url(#paint3_linear_8018_18)"/>
<path d="M106.028 19.7132C103.878 20.4473 100.417 20.3948 100.417 15.7018V8.78036H98.0312V5.60801H100.417V1.12477H103.694V5.60801H106.395V8.78036H103.747V15.597C103.747 17.0652 105.084 17.1963 106.028 16.803V19.7132Z" fill="url(#paint4_linear_8018_18)"/>
<path d="M83.3828 19.7656V5.60801H86.7649V7.46947C87.6039 6.1848 89.3605 5.29339 91.1957 5.29339C94.1583 5.29339 96.5966 7.44325 96.5966 10.9564V19.7656H93.1883V11.8216C93.1883 9.64554 91.9822 8.49196 90.2519 8.49196C88.4428 8.49196 86.8698 9.75041 86.8698 11.9527V19.7656H83.3828Z" fill="url(#paint5_linear_8018_18)"/>
<path d="M72.636 20.0802C69.857 20.0802 67.8906 18.4547 67.8906 16.1475C67.8906 13.4209 70.0143 12.3984 71.8233 11.8478C74.8646 10.904 77.1717 11.0875 77.1717 9.75041C77.1717 8.88523 76.2017 8.43953 74.9432 8.43953C73.6323 8.43953 72.1379 9.06875 71.8233 10.0912L68.4412 9.01632C69.254 6.55185 71.8495 5.37205 74.8383 5.37205C78.5088 5.37205 80.7898 7.0762 80.7898 10.2748V19.7656H77.3028V18.3498C76.0181 19.5821 74.2615 20.0802 72.636 20.0802ZM74.1829 17.17C75.6249 16.9603 76.7785 16.2524 77.2766 15.4397V12.949C76.8047 13.4733 75.5462 13.7617 74.1305 14.0763C72.4263 14.4434 71.3514 14.6794 71.3776 15.8067C71.4038 16.9079 72.5574 17.4584 74.1829 17.17Z" fill="url(#paint6_linear_8018_18)"/>
<path d="M61.8962 19.7656V5.60801H65.4094V19.7656H61.8962ZM61.8438 3.19597V0.0498409H65.4094V3.19597H61.8438Z" fill="url(#paint7_linear_8018_18)"/>
<path d="M52.0234 19.7656V5.60801H55.3793V7.25973C56.6115 5.52935 58.3944 5.50314 59.9936 5.60801V8.78036C57.6865 8.78036 55.3793 9.27849 55.3793 12.2411V19.7656H52.0234Z" fill="url(#paint8_linear_8018_18)"/>
<path d="M41.2845 20.0802C38.5054 20.0802 36.5391 18.4547 36.5391 16.1475C36.5391 13.4209 38.6627 12.3984 40.4717 11.8478C43.513 10.904 45.8201 11.0875 45.8201 9.75041C45.8201 8.88523 44.8501 8.43953 43.5916 8.43953C42.2808 8.43953 40.7863 9.06875 40.4717 10.0912L37.0896 9.01632C37.9024 6.55185 40.4979 5.37205 43.4868 5.37205C47.1573 5.37205 49.4382 7.0762 49.4382 10.2748V19.7656H45.9512V18.3498C44.6666 19.5821 42.91 20.0802 41.2845 20.0802ZM42.8313 17.17C44.2733 16.9603 45.4269 16.2524 45.925 15.4397V12.949C45.4531 13.4733 44.1946 13.7617 42.7789 14.0763C41.0747 14.4434 39.9998 14.6794 40.026 15.8067C40.0522 16.9079 41.2058 17.4584 42.8313 17.17Z" fill="url(#paint9_linear_8018_18)"/>
<path d="M27.0941 19.7656L22.0078 5.60801H25.4948L28.9817 15.4397L32.4425 5.60801H35.9557L30.7383 19.7656H27.0941Z" fill="url(#paint10_linear_8018_18)"/>
<path d="M7.79688 19.7656V5.60801H11.179V7.46947C12.0179 6.1848 13.7745 5.29339 15.6098 5.29339C18.5724 5.29339 21.0106 7.44325 21.0106 10.9564V19.7656H17.6023V11.8216C17.6023 9.64554 16.3963 8.49196 14.6659 8.49196C12.8569 8.49196 11.2838 9.75041 11.2838 11.9527V19.7656H7.79688Z" fill="url(#paint11_linear_8018_18)"/>
<path d="M0.953125 19.7656V0.0498409H4.70227V19.7656H0.953125Z" fill="url(#paint12_linear_8018_18)"/>
<defs>
<linearGradient id="paint0_linear_8018_18" x1="110.351" y1="0.417773" x2="152.105" y2="23.265" gradientUnits="userSpaceOnUse">
<stop stop-color="#C7C7C7"/>
<stop offset="1" stop-color="#B5B5B5" stop-opacity="0.8"/>
</linearGradient>
<linearGradient id="paint1_linear_8018_18" x1="110.351" y1="0.417773" x2="152.105" y2="23.265" gradientUnits="userSpaceOnUse">
<stop stop-color="#C7C7C7"/>
<stop offset="1" stop-color="#B5B5B5" stop-opacity="0.8"/>
</linearGradient>
<linearGradient id="paint2_linear_8018_18" x1="110.347" y1="0.417773" x2="152.101" y2="23.265" gradientUnits="userSpaceOnUse">
<stop stop-color="#C7C7C7"/>
<stop offset="1" stop-color="#B5B5B5" stop-opacity="0.8"/>
</linearGradient>
<linearGradient id="paint3_linear_8018_18" x1="110.349" y1="0.417773" x2="152.102" y2="23.265" gradientUnits="userSpaceOnUse">
<stop stop-color="#C7C7C7"/>
<stop offset="1" stop-color="#B5B5B5" stop-opacity="0.8"/>
</linearGradient>
<linearGradient id="paint4_linear_8018_18" x1="-1.09484" y1="2.38879" x2="101.88" y2="24.5333" gradientUnits="userSpaceOnUse">
<stop stop-color="white"/>
<stop offset="1" stop-color="#E0E0E0"/>
</linearGradient>
<linearGradient id="paint5_linear_8018_18" x1="-1.08816" y1="2.38879" x2="101.887" y2="24.5333" gradientUnits="userSpaceOnUse">
<stop stop-color="white"/>
<stop offset="1" stop-color="#E0E0E0"/>
</linearGradient>
<linearGradient id="paint6_linear_8018_18" x1="-1.0922" y1="2.38879" x2="101.883" y2="24.5333" gradientUnits="userSpaceOnUse">
<stop stop-color="white"/>
<stop offset="1" stop-color="#E0E0E0"/>
</linearGradient>
<linearGradient id="paint7_linear_8018_18" x1="-1.0926" y1="2.38879" x2="101.883" y2="24.5333" gradientUnits="userSpaceOnUse">
<stop stop-color="white"/>
<stop offset="1" stop-color="#E0E0E0"/>
</linearGradient>
<linearGradient id="paint8_linear_8018_18" x1="-1.09477" y1="2.38879" x2="101.881" y2="24.5333" gradientUnits="userSpaceOnUse">
<stop stop-color="white"/>
<stop offset="1" stop-color="#E0E0E0"/>
</linearGradient>
<linearGradient id="paint9_linear_8018_18" x1="-1.09101" y1="2.38879" x2="101.884" y2="24.5333" gradientUnits="userSpaceOnUse">
<stop stop-color="white"/>
<stop offset="1" stop-color="#E0E0E0"/>
</linearGradient>
<linearGradient id="paint10_linear_8018_18" x1="-1.09536" y1="2.38879" x2="101.88" y2="24.5333" gradientUnits="userSpaceOnUse">
<stop stop-color="white"/>
<stop offset="1" stop-color="#E0E0E0"/>
</linearGradient>
<linearGradient id="paint11_linear_8018_18" x1="-1.09013" y1="2.38879" x2="101.885" y2="24.5333" gradientUnits="userSpaceOnUse">
<stop stop-color="white"/>
<stop offset="1" stop-color="#E0E0E0"/>
</linearGradient>
<linearGradient id="paint12_linear_8018_18" x1="-1.09186" y1="2.38879" x2="101.883" y2="24.5333" gradientUnits="userSpaceOnUse">
<stop stop-color="white"/>
<stop offset="1" stop-color="#E0E0E0"/>
</linearGradient>
</defs>
</svg>
