<?xml version="1.0" encoding="UTF-8"?>
<svg width="640px" height="135px" viewBox="0 0 640 135" version="1.1" xmlns="http://www.w3.org/2000/svg" xmlns:xlink="http://www.w3.org/1999/xlink">
    <title>stanford</title>
    <g id="Page-1" stroke="none" stroke-width="1" fill="none" fill-rule="evenodd">
        <g id="stanford" transform="translate(-0.000600, 0.000376)" fill="#505050" fill-rule="nonzero">
            <path d="M349.9206,13.9266242 C355.1084,4.94282418 365.5566,0.206624182 375.6786,0.116624182 C384.9154,-0.479885818 395.3636,1.05657418 401.8346,8.35932418 C398.5448,12.6975242 395.3995,17.1262242 392.1097,21.4643242 C388.4403,17.2526242 385.4216,11.3233242 379.4927,10.1303242 C373.6541,8.32272418 366.3157,11.3595242 364.7967,17.6138242 C362.3384,27.5375242 363.82059,37.9128242 363.4591,48.0358242 L382.4211,48.0358242 L382.4211,59.3338242 L363.4411,59.3338242 C363.4411,76.3618242 363.4411,93.3888242 363.423,110.416824 C363.3507,115.243124 364.12796,120.015224 365.0318,124.750824 C369.37,126.757224 374.0517,127.787624 378.8418,127.878024 C378.8237,129.052924 378.8056,131.420924 378.7876,132.613924 C363.2786,131.601624 347.7506,131.294324 332.2596,132.595824 C332.2596,131.601644 332.2957,129.613324 332.2957,128.619124 C337.1943,127.751474 343.2677,125.473924 343.4667,119.581124 C345.3647,99.5711242 344.08129,79.4161242 344.46088,59.3341242 C340.68298,59.3341242 336.90508,59.3341242 333.12688,59.3160442 C333.14498,57.6169442 333.18108,55.8996442 333.19918,54.2005442 C337.03128,52.4290442 340.77308,50.4588442 344.46018,48.4342442 C344.46018,36.8292442 343.77329,24.2842442 349.91918,13.9272442 L349.9206,13.9266242 Z" id="Path"></path>
            <path d="M629.5006,0.0986241823 C619.4686,2.41232418 609.3106,4.36392418 599.0066,4.81582418 C598.89814,5.75577418 598.69856,7.63522418 598.60816,8.57522418 C602.44026,9.73212418 608.69516,9.42628418 608.96616,14.7768242 C610.50266,25.6228242 609.41823,36.6288242 609.72553,47.5468242 C594.95753,45.0162242 578.45353,45.1789242 565.89153,54.3796242 C552.13553,64.0141242 547.41753,81.9826242 548.79153,97.9986242 C549.56879,110.416624 555.78643,123.160624 567.04753,129.215624 C580.45953,136.590624 597.61453,135.072324 610.17753,126.576524 C610.26793,129.089124 610.32193,131.601424 610.34003,134.114024 C620.06493,131.637624 630.00803,130.245624 640.00403,129.667124 L640.00403,125.328024 C625.83703,122.915424 629.75403,116.359024 628.76003,105.211024 C628.77813,70.1800242 628.23533,35.1300242 629.50066,0.101024182 L629.5006,0.0986241823 Z M592.7486,56.5906242 C598.7306,56.5272742 604.8146,58.4384242 609.7256,61.7734242 C609.7437,80.6264242 609.6891,99.4794242 609.7615,118.332424 C599.2415,123.158724 585.0155,122.815124 576.7725,113.885524 C569.7048,106.329724 568.5117,95.2675242 569.1444,85.3975242 C569.84938,76.4137242 571.7307,66.1465242 579.5754,60.5785242 C583.5058,57.8818242 588.0962,56.6387242 592.7484,56.5890975 L592.7486,56.5906242 Z" id="Shape"></path>
            <path d="M33.2066,11.6126242 C45.1186,10.8895842 57.0666,11.6668542 68.8526,13.3298242 C68.14763,21.7171242 68.21994,30.1588242 68.8707,38.5458242 C67.7319,38.5458242 65.4543,38.5639042 64.3155,38.5639042 C63.4117,33.3219042 62.4717,26.9589042 56.8862,24.6269042 C48.6074,21.1382042 38.9182,20.7948042 30.3322,23.2893042 C19.1072,26.6153042 17.2632,43.1363042 25.6144,50.3493042 C36.0624,59.4958042 48.8604,65.4793042 59.5614,74.3543042 C76.3174,87.6943042 74.1304,118.749304 54.247,128.094304 C37.509,135.830804 17.86,133.878604 0.579,129.016184 C0.687,120.706184 0.38,112.396184 2.84217094e-14,104.096184 C1.2472,104.078084 3.7598,104.023884 5.0251,104.005784 C5.91083,109.229784 6.7242,115.646784 12.0205,118.339784 C21.4923,123.654184 33.7115,124.087984 43.5455,119.514684 C55.8195,112.736184 53.5595,93.1416842 42.0813,86.5436842 C32.1213,78.8736842 20.6793,73.2036842 11.4783,64.5436842 C1.2833,55.0716842 0.0183,38.4776842 6.5803,26.6376842 C11.9483,17.2016842 22.7763,12.4846842 33.2063,11.6166842 L33.2066,11.6126242 Z" id="Path"></path>
            <path d="M103.9006,29.3816242 C104.84056,29.4358542 106.7385,29.5262342 107.6785,29.5804642 C107.6604,35.8889642 107.6604,42.1794642 107.6604,48.4884642 L136.5824,48.4884642 L136.5824,59.3344642 L107.6604,59.3344642 C107.76885,74.5184642 107.42541,89.7204642 107.82308,104.922464 C108.22076,110.706764 108.38344,117.919464 113.78818,121.462464 C120.60288,125.511464 128.75518,122.980864 135.57018,120.323664 C137.66698,125.457264 132.33458,128.331364 128.62898,130.464664 C119.93438,134.676364 109.32398,135.128264 100.33998,131.621564 C92.65768,128.747464 88.95198,120.342564 88.55398,112.641564 C87.63211,94.8905642 88.55398,77.1045642 88.69859,59.3355642 L77.40059,59.3355642 C77.38249,58.1425642 77.36449,56.9675642 77.34639,55.7926642 C89.62039,51.1651642 97.89839,40.5906642 103.90039,29.3836642 L103.9006,29.3816242 Z" id="Path"></path>
            <path d="M181.3006,45.6206242 C168.2686,45.4866942 155.1256,51.9597242 150.9386,65.0456242 C152.0774,65.6963642 154.3911,66.9792242 155.548,67.6300242 C160.555,58.7908242 172.25,54.2540242 181.468,59.3519242 C188.6984,62.6417242 189.3142,71.4799242 189.1696,78.4039242 C177.7996,82.0553242 166.0316,84.9299242 155.2946,90.2809242 C142.4246,97.0775242 140.7616,116.345924 149.9805,126.775924 C160.8445,136.735824 178.9745,135.126324 189.7115,125.708724 C192.9833,132.179924 200.7195,134.656724 207.4615,132.758724 C213.3362,131.619924 217.2222,126.721524 221.0725,122.581724 C220.40367,121.822534 219.0491,120.285524 218.3803,119.508324 C215.9581,120.122914 213.2279,122.038924 210.86,120.177074 C207.7871,118.062174 208.166,113.814474 207.9491,110.542674 C208.16606,96.5156742 208.94334,82.4536742 208.20222,68.4086742 C207.8407,61.1420742 204.58732,53.7116742 198.15222,49.8976742 C193.12482,47.1071742 187.22422,45.6819742 181.30022,45.6210742 L181.3006,45.6206242 Z M188.9694,89.3576242 C189.0417,98.8114242 188.9702,108.264624 189.0428,117.718624 C182.9873,120.411924 175.7928,122.906524 169.4118,119.815524 C161.603,115.658024 161.929,103.222524 168.3821,97.9985242 C174.5822,93.7326242 181.9381,91.7258242 188.9701,89.3576242 L188.9694,89.3576242 Z" id="Shape"></path>
            <path d="M430.4306,45.9756242 C420.9045,46.0840842 411.0706,48.4521242 403.6226,54.6522242 C392.5416,63.6179242 387.7346,78.4402242 388.2226,92.3582242 C388.1684,104.270224 391.8739,116.978224 401.2556,124.896224 C412.3366,134.548824 428.4416,135.506224 442.2336,132.632124 C456.7846,129.432624 467.7206,116.689124 470.8116,102.409124 C474.1376,87.5871242 472.7455,70.3611242 462.5507,58.3951242 C454.7057,49.2125242 442.1437,45.7411242 430.4307,45.9761242 L430.4306,45.9756242 Z M430.55717,56.0926242 C435.67647,56.1921842 440.74217,58.2946242 444.02317,62.3707242 C449.97017,69.6553242 451.56117,79.4527242 451.99507,88.5987242 C452.06737,98.5586242 450.80187,109.312724 444.52947,117.446724 C438.36557,125.418224 425.08047,126.304124 417.97647,119.127924 C412.53557,114.084724 410.51037,106.583924 409.28117,99.5339242 C407.99777,90.1705242 408.32384,80.4269242 411.27027,71.4069242 C413.33097,65.3695242 417.34347,59.2599242 423.70627,57.1989242 C425.89237,56.4137442 428.23087,56.0458242 430.55787,56.0911242 L430.55717,56.0926242 Z" id="Shape"></path>
            <path d="M227.8706,51.7236242 C237.9756,51.5609442 248.2246,50.5125242 257.5516,46.3369242 C257.87697,48.7410242 258.13003,51.1451242 258.32887,53.5854242 C269.04787,46.5719242 282.89387,43.8424242 295.16787,48.1807242 C303.95287,51.1271242 310.09887,59.7317242 310.87587,68.8417242 C312.68347,86.1767242 310.06245,103.746724 312.37617,121.045724 C312.62924,126.486624 318.48587,127.715824 322.73417,128.601524 C322.75227,129.613824 322.75227,131.638324 322.77027,132.650524 C308.41827,131.511724 279.67727,132.596324 279.67727,132.596324 L279.62297,128.497624 C279.62297,128.497624 289.98997,125.582824 290.64897,122.600224 C293.01697,109.730224 292.45657,96.4262242 292.33007,83.3572242 C291.8601,75.5484242 292.05893,65.7872242 284.59357,61.0332242 C276.58587,56.4238242 266.77057,58.5568242 258.58257,61.5393542 C258.63677,78.4583542 258.58257,95.3953542 258.58257,112.315354 C258.81756,116.834354 258.49217,121.986054 261.43857,125.745354 C263.91497,127.462554 267.02407,127.769854 269.86197,128.565254 C269.88007,129.577554 269.89807,131.620054 269.89807,132.650524 C255.74407,131.728574 241.55507,131.132054 227.41907,132.632354 C227.41907,131.620054 227.45527,129.613654 227.45527,128.619454 C231.75737,127.625274 237.43327,126.269554 238.24627,121.063654 C240.21657,108.591654 238.69817,95.8476542 239.16814,83.2666542 C238.98738,76.0904542 239.78273,68.8236542 238.51741,61.7376542 C237.52322,56.8932542 231.61241,57.1644542 227.88841,56.2063542 C227.88841,55.0856542 227.87031,52.8442542 227.87031,51.7234542 L227.8706,51.7236242 Z" id="Path"></path>
            <path d="M480.4606,51.3436242 C490.5836,51.1990142 500.7056,49.8252242 510.3226,46.5896242 L510.59374,54.0369242 C520.31864,46.2100242 534.97874,44.2216242 545.33574,51.9762242 L534.53574,68.4602242 C529.49254,60.6875242 519.26174,58.8076242 511.18174,62.7662242 C511.18174,62.7662242 511.12754,96.9842242 511.23594,114.084224 C511.65168,117.898224 511.05518,122.851124 514.63424,125.345224 C518.08674,127.369724 522.28044,127.261324 526.13024,127.875824 C526.13024,129.050724 526.11214,131.436824 526.11214,132.611724 C510.58514,131.563324 495.02114,131.346424 479.49414,132.575524 L479.49114,127.875924 C484.49634,127.022414 489.70714,125.290924 490.46614,122.308324 C492.61714,114.951424 491.56874,107.160324 491.78574,99.5863242 C491.56882,87.5293242 492.21956,75.4543242 491.49652,63.4163242 C491.44232,57.5597242 484.80842,57.0355242 480.50652,56.1859242 C480.51352,54.5258242 480.47742,52.8211242 480.47072,51.3416242 L480.4606,51.3436242 Z" id="Path"></path>
        </g>
    </g>
</svg>